<mxfile host="Electron" agent="Mozilla/5.0 (Windows NT 10.0; Win64; x64) AppleWebKit/537.36 (KHTML, like Gecko) draw.io/25.0.1 Chrome/128.0.6613.186 Electron/32.2.6 Safari/537.36" version="25.0.1">
  <diagram name="PÃ¡gina-1" id="s3OMrO0p6jmiYu_DmSFK">
    <mxGraphModel dx="2327" dy="2056" grid="1" gridSize="10" guides="1" tooltips="1" connect="1" arrows="1" fold="1" page="1" pageScale="1" pageWidth="827" pageHeight="1169" math="0" shadow="0">
      <root>
        <mxCell id="0" />
        <mxCell id="1" parent="0" />
        <mxCell id="LZ3MUwEuHvVNPTTfiNw9-14" value="" style="rounded=0;whiteSpace=wrap;html=1;" parent="1" vertex="1">
          <mxGeometry x="593.5" y="-345" width="260" height="160" as="geometry" />
        </mxCell>
        <mxCell id="LZ3MUwEuHvVNPTTfiNw9-12" value="" style="rounded=0;whiteSpace=wrap;html=1;" parent="1" vertex="1">
          <mxGeometry x="73.5" y="-340.5" width="260" height="160" as="geometry" />
        </mxCell>
        <mxCell id="3uJrxtnBRZQrfx2Aj6_I-8" value="" style="verticalLabelPosition=bottom;aspect=fixed;html=1;verticalAlign=top;strokeColor=none;align=center;outlineConnect=0;shape=mxgraph.citrix.tower_server;rounded=1;" parent="1" vertex="1">
          <mxGeometry x="432" y="-875" width="65" height="85" as="geometry" />
        </mxCell>
        <mxCell id="3uJrxtnBRZQrfx2Aj6_I-30" style="edgeStyle=none;rounded=1;orthogonalLoop=1;jettySize=auto;html=1;exitX=0.85;exitY=0.73;exitDx=0;exitDy=0;exitPerimeter=0;fontFamily=Helvetica;fontSize=12;fontColor=default;entryX=0;entryY=0.73;entryDx=0;entryDy=0;entryPerimeter=0;endArrow=baseDash;endFill=0;" parent="1" source="3uJrxtnBRZQrfx2Aj6_I-17" target="3uJrxtnBRZQrfx2Aj6_I-19" edge="1">
          <mxGeometry relative="1" as="geometry">
            <mxPoint x="410" y="-567" as="targetPoint" />
          </mxGeometry>
        </mxCell>
        <mxCell id="3uJrxtnBRZQrfx2Aj6_I-17" value="" style="shape=mxgraph.cisco.routers.isci_router;sketch=0;html=1;pointerEvents=1;dashed=0;strokeWidth=2;verticalLabelPosition=bottom;verticalAlign=top;align=center;outlineConnect=0;rounded=1;fontFamily=Helvetica;fontSize=12;fillColor=#bac8d3;strokeColor=#23445d;points=[[0,0.5,0,0,0],[0,0.76,0,0,0],[0.16,0.15,0,0,0],[0.5,0.15,0,0,0],[0.5,1,0,0,0],[0.85,0.73,0,0,0],[1,0,0,0,0],[1,0.5,0,0,0]];" parent="1" vertex="1">
          <mxGeometry x="153" y="-622" width="101" height="75" as="geometry" />
        </mxCell>
        <mxCell id="3uJrxtnBRZQrfx2Aj6_I-19" value="" style="shape=mxgraph.cisco.routers.isci_router;sketch=0;html=1;pointerEvents=1;dashed=0;strokeWidth=2;verticalLabelPosition=bottom;verticalAlign=top;align=center;outlineConnect=0;rounded=1;fontFamily=Helvetica;fontSize=12;fillColor=#bac8d3;strokeColor=#23445d;points=[[0,0.5,0,0,0],[0,0.73,0,0,0],[0.16,0.15,0,0,0],[0.5,0.15,0,0,0],[0.5,1,0,0,0],[0.94,0.73,0,0,0],[1,0,0,0,0],[1,0.5,0,0,0]];" parent="1" vertex="1">
          <mxGeometry x="416" y="-622" width="101" height="75" as="geometry" />
        </mxCell>
        <mxCell id="3uJrxtnBRZQrfx2Aj6_I-20" value="" style="shape=mxgraph.cisco.routers.isci_router;sketch=0;html=1;pointerEvents=1;dashed=0;strokeWidth=2;verticalLabelPosition=bottom;verticalAlign=top;align=center;outlineConnect=0;rounded=1;fontFamily=Helvetica;fontSize=12;fillColor=#bac8d3;strokeColor=#23445d;points=[[0,0.5,0,0,0],[0,0.73,0,0,0],[0.16,0.15,0,0,0],[0.5,0.15,0,0,0],[0.5,1,0,0,0],[0.94,0.73,0,0,0],[1,0,0,0,0],[1,0.5,0,0,0]];" parent="1" vertex="1">
          <mxGeometry x="673" y="-622" width="101" height="75" as="geometry" />
        </mxCell>
        <mxCell id="3uJrxtnBRZQrfx2Aj6_I-21" value="" style="shape=mxgraph.cisco.misc.bbsm;sketch=0;html=1;pointerEvents=1;dashed=0;fillColor=#55b5d8;strokeColor=#10739e;strokeWidth=2;verticalLabelPosition=bottom;verticalAlign=top;align=center;outlineConnect=0;rounded=1;fontFamily=Helvetica;fontSize=12;" parent="1" vertex="1">
          <mxGeometry x="414" y="-700" width="101" height="42" as="geometry" />
        </mxCell>
        <mxCell id="3uJrxtnBRZQrfx2Aj6_I-22" style="edgeStyle=none;rounded=1;orthogonalLoop=1;jettySize=auto;html=1;entryX=0.5;entryY=0.15;entryDx=0;entryDy=0;entryPerimeter=0;fontFamily=Helvetica;fontSize=12;fontColor=default;endArrow=baseDash;endFill=0;" parent="1" source="3uJrxtnBRZQrfx2Aj6_I-21" target="3uJrxtnBRZQrfx2Aj6_I-17" edge="1">
          <mxGeometry relative="1" as="geometry" />
        </mxCell>
        <mxCell id="3uJrxtnBRZQrfx2Aj6_I-23" style="edgeStyle=none;rounded=1;orthogonalLoop=1;jettySize=auto;html=1;entryX=0.5;entryY=0.15;entryDx=0;entryDy=0;entryPerimeter=0;fontFamily=Helvetica;fontSize=12;fontColor=default;endArrow=baseDash;endFill=0;" parent="1" source="3uJrxtnBRZQrfx2Aj6_I-21" target="3uJrxtnBRZQrfx2Aj6_I-19" edge="1">
          <mxGeometry relative="1" as="geometry" />
        </mxCell>
        <mxCell id="3uJrxtnBRZQrfx2Aj6_I-24" style="edgeStyle=none;rounded=1;orthogonalLoop=1;jettySize=auto;html=1;entryX=0.5;entryY=0.15;entryDx=0;entryDy=0;entryPerimeter=0;fontFamily=Helvetica;fontSize=12;fontColor=default;endArrow=baseDash;endFill=0;" parent="1" source="3uJrxtnBRZQrfx2Aj6_I-21" target="3uJrxtnBRZQrfx2Aj6_I-20" edge="1">
          <mxGeometry relative="1" as="geometry" />
        </mxCell>
        <mxCell id="3uJrxtnBRZQrfx2Aj6_I-27" style="edgeStyle=none;rounded=1;orthogonalLoop=1;jettySize=auto;html=1;entryX=0.5;entryY=0;entryDx=0;entryDy=0;entryPerimeter=0;fontFamily=Helvetica;fontSize=12;fontColor=default;endArrow=baseDash;endFill=0;" parent="1" source="3uJrxtnBRZQrfx2Aj6_I-8" target="3uJrxtnBRZQrfx2Aj6_I-21" edge="1">
          <mxGeometry relative="1" as="geometry" />
        </mxCell>
        <mxCell id="3uJrxtnBRZQrfx2Aj6_I-32" style="edgeStyle=none;rounded=1;orthogonalLoop=1;jettySize=auto;html=1;exitX=0.94;exitY=0.73;exitDx=0;exitDy=0;exitPerimeter=0;entryX=0;entryY=0.73;entryDx=0;entryDy=0;entryPerimeter=0;fontFamily=Helvetica;fontSize=12;fontColor=default;endArrow=baseDash;endFill=0;" parent="1" source="3uJrxtnBRZQrfx2Aj6_I-19" target="3uJrxtnBRZQrfx2Aj6_I-20" edge="1">
          <mxGeometry relative="1" as="geometry" />
        </mxCell>
        <mxCell id="3uJrxtnBRZQrfx2Aj6_I-45" value="" style="edgeStyle=none;rounded=1;orthogonalLoop=1;jettySize=auto;html=1;fontFamily=Helvetica;fontSize=12;fontColor=default;endArrow=baseDash;endFill=0;" parent="1" source="3uJrxtnBRZQrfx2Aj6_I-33" target="3uJrxtnBRZQrfx2Aj6_I-42" edge="1">
          <mxGeometry relative="1" as="geometry" />
        </mxCell>
        <mxCell id="3uJrxtnBRZQrfx2Aj6_I-33" value="" style="shape=mxgraph.cisco.routers.router;sketch=0;html=1;pointerEvents=1;dashed=0;fillColor=#bac8d3;strokeColor=#23445d;strokeWidth=2;verticalLabelPosition=bottom;verticalAlign=top;align=center;outlineConnect=0;rounded=1;fontFamily=Helvetica;fontSize=12;" parent="1" vertex="1">
          <mxGeometry x="-117" y="-589" width="78" height="53" as="geometry" />
        </mxCell>
        <mxCell id="3uJrxtnBRZQrfx2Aj6_I-48" value="" style="edgeStyle=none;rounded=1;orthogonalLoop=1;jettySize=auto;html=1;fontFamily=Helvetica;fontSize=12;fontColor=default;endArrow=baseDash;endFill=0;" parent="1" source="3uJrxtnBRZQrfx2Aj6_I-34" target="3uJrxtnBRZQrfx2Aj6_I-41" edge="1">
          <mxGeometry relative="1" as="geometry" />
        </mxCell>
        <mxCell id="3uJrxtnBRZQrfx2Aj6_I-34" value="" style="shape=mxgraph.cisco.routers.router;sketch=0;html=1;pointerEvents=1;dashed=0;fillColor=#bac8d3;strokeColor=#23445d;strokeWidth=2;verticalLabelPosition=bottom;verticalAlign=top;align=center;outlineConnect=0;rounded=1;fontFamily=Helvetica;fontSize=12;" parent="1" vertex="1">
          <mxGeometry x="940" y="-594" width="78" height="53" as="geometry" />
        </mxCell>
        <mxCell id="3uJrxtnBRZQrfx2Aj6_I-35" style="edgeStyle=none;rounded=1;orthogonalLoop=1;jettySize=auto;html=1;exitX=0.94;exitY=0.73;exitDx=0;exitDy=0;exitPerimeter=0;entryX=0;entryY=0.5;entryDx=0;entryDy=0;entryPerimeter=0;fontFamily=Helvetica;fontSize=12;fontColor=default;endArrow=baseDash;endFill=0;" parent="1" source="3uJrxtnBRZQrfx2Aj6_I-20" target="3uJrxtnBRZQrfx2Aj6_I-34" edge="1">
          <mxGeometry relative="1" as="geometry" />
        </mxCell>
        <mxCell id="3uJrxtnBRZQrfx2Aj6_I-36" style="edgeStyle=none;rounded=1;orthogonalLoop=1;jettySize=auto;html=1;exitX=0;exitY=0.76;exitDx=0;exitDy=0;exitPerimeter=0;entryX=1;entryY=0.5;entryDx=0;entryDy=0;entryPerimeter=0;fontFamily=Helvetica;fontSize=12;fontColor=default;endArrow=baseDash;endFill=0;" parent="1" source="3uJrxtnBRZQrfx2Aj6_I-17" target="3uJrxtnBRZQrfx2Aj6_I-33" edge="1">
          <mxGeometry relative="1" as="geometry" />
        </mxCell>
        <mxCell id="3uJrxtnBRZQrfx2Aj6_I-46" value="" style="edgeStyle=none;rounded=1;orthogonalLoop=1;jettySize=auto;html=1;fontFamily=Helvetica;fontSize=12;fontColor=default;endArrow=baseDash;endFill=0;" parent="1" source="3uJrxtnBRZQrfx2Aj6_I-37" target="3uJrxtnBRZQrfx2Aj6_I-43" edge="1">
          <mxGeometry relative="1" as="geometry" />
        </mxCell>
        <mxCell id="3uJrxtnBRZQrfx2Aj6_I-37" value="" style="shape=mxgraph.cisco.routers.router;sketch=0;html=1;pointerEvents=1;dashed=0;fillColor=#bac8d3;strokeColor=#23445d;strokeWidth=2;verticalLabelPosition=bottom;verticalAlign=top;align=center;outlineConnect=0;rounded=1;fontFamily=Helvetica;fontSize=12;" parent="1" vertex="1">
          <mxGeometry x="-117" y="-408" width="78" height="53" as="geometry" />
        </mxCell>
        <mxCell id="3uJrxtnBRZQrfx2Aj6_I-47" value="" style="edgeStyle=none;rounded=1;orthogonalLoop=1;jettySize=auto;html=1;fontFamily=Helvetica;fontSize=12;fontColor=default;endArrow=baseDash;endFill=0;" parent="1" source="3uJrxtnBRZQrfx2Aj6_I-38" target="3uJrxtnBRZQrfx2Aj6_I-44" edge="1">
          <mxGeometry relative="1" as="geometry" />
        </mxCell>
        <mxCell id="3uJrxtnBRZQrfx2Aj6_I-38" value="" style="shape=mxgraph.cisco.routers.router;sketch=0;html=1;pointerEvents=1;dashed=0;fillColor=#bac8d3;strokeColor=#23445d;strokeWidth=2;verticalLabelPosition=bottom;verticalAlign=top;align=center;outlineConnect=0;rounded=1;fontFamily=Helvetica;fontSize=12;" parent="1" vertex="1">
          <mxGeometry x="-117" y="-228" width="78" height="53" as="geometry" />
        </mxCell>
        <mxCell id="3uJrxtnBRZQrfx2Aj6_I-39" style="edgeStyle=none;rounded=1;orthogonalLoop=1;jettySize=auto;html=1;entryX=0.5;entryY=0;entryDx=0;entryDy=0;entryPerimeter=0;fontFamily=Helvetica;fontSize=12;fontColor=default;endArrow=baseDash;endFill=0;" parent="1" source="3uJrxtnBRZQrfx2Aj6_I-33" target="3uJrxtnBRZQrfx2Aj6_I-37" edge="1">
          <mxGeometry relative="1" as="geometry" />
        </mxCell>
        <mxCell id="3uJrxtnBRZQrfx2Aj6_I-40" style="edgeStyle=none;rounded=1;orthogonalLoop=1;jettySize=auto;html=1;entryX=0.5;entryY=0;entryDx=0;entryDy=0;entryPerimeter=0;fontFamily=Helvetica;fontSize=12;fontColor=default;endArrow=baseDash;endFill=0;" parent="1" source="3uJrxtnBRZQrfx2Aj6_I-37" target="3uJrxtnBRZQrfx2Aj6_I-38" edge="1">
          <mxGeometry relative="1" as="geometry" />
        </mxCell>
        <mxCell id="3uJrxtnBRZQrfx2Aj6_I-41" value="" style="shape=mxgraph.cisco.misc.bbsm;sketch=0;html=1;pointerEvents=1;dashed=0;fillColor=#55b5d8;strokeColor=#10739e;strokeWidth=2;verticalLabelPosition=bottom;verticalAlign=top;align=center;outlineConnect=0;rounded=1;fontFamily=Helvetica;fontSize=12;" parent="1" vertex="1">
          <mxGeometry x="928.5" y="-700" width="101" height="42" as="geometry" />
        </mxCell>
        <mxCell id="3uJrxtnBRZQrfx2Aj6_I-54" value="" style="edgeStyle=none;rounded=1;orthogonalLoop=1;jettySize=auto;html=1;fontFamily=Helvetica;fontSize=12;fontColor=default;endArrow=baseDash;endFill=0;" parent="1" source="3uJrxtnBRZQrfx2Aj6_I-42" edge="1">
          <mxGeometry relative="1" as="geometry">
            <mxPoint x="-408" y="-562.5" as="targetPoint" />
          </mxGeometry>
        </mxCell>
        <mxCell id="3uJrxtnBRZQrfx2Aj6_I-42" value="" style="shape=mxgraph.cisco.misc.bbsm;sketch=0;html=1;pointerEvents=1;dashed=0;fillColor=#55b5d8;strokeColor=#10739e;strokeWidth=2;verticalLabelPosition=bottom;verticalAlign=top;align=center;outlineConnect=0;rounded=1;fontFamily=Helvetica;fontSize=12;" parent="1" vertex="1">
          <mxGeometry x="-327" y="-583.5" width="101" height="42" as="geometry" />
        </mxCell>
        <mxCell id="3uJrxtnBRZQrfx2Aj6_I-53" value="" style="edgeStyle=none;rounded=1;orthogonalLoop=1;jettySize=auto;html=1;fontFamily=Helvetica;fontSize=12;fontColor=default;endArrow=baseDash;endFill=0;" parent="1" source="3uJrxtnBRZQrfx2Aj6_I-43" edge="1">
          <mxGeometry relative="1" as="geometry">
            <mxPoint x="-408" y="-381.5000000000002" as="targetPoint" />
          </mxGeometry>
        </mxCell>
        <mxCell id="3uJrxtnBRZQrfx2Aj6_I-43" value="" style="shape=mxgraph.cisco.misc.bbsm;sketch=0;html=1;pointerEvents=1;dashed=0;fillColor=#55b5d8;strokeColor=#10739e;strokeWidth=2;verticalLabelPosition=bottom;verticalAlign=top;align=center;outlineConnect=0;rounded=1;fontFamily=Helvetica;fontSize=12;" parent="1" vertex="1">
          <mxGeometry x="-327" y="-402.5" width="101" height="42" as="geometry" />
        </mxCell>
        <mxCell id="3uJrxtnBRZQrfx2Aj6_I-52" value="" style="edgeStyle=none;rounded=1;orthogonalLoop=1;jettySize=auto;html=1;fontFamily=Helvetica;fontSize=12;fontColor=default;endArrow=baseDash;endFill=0;" parent="1" source="3uJrxtnBRZQrfx2Aj6_I-44" edge="1">
          <mxGeometry relative="1" as="geometry">
            <mxPoint x="-408" y="-201.50000000000045" as="targetPoint" />
          </mxGeometry>
        </mxCell>
        <mxCell id="3uJrxtnBRZQrfx2Aj6_I-44" value="" style="shape=mxgraph.cisco.misc.bbsm;sketch=0;html=1;pointerEvents=1;dashed=0;fillColor=#55b5d8;strokeColor=#10739e;strokeWidth=2;verticalLabelPosition=bottom;verticalAlign=top;align=center;outlineConnect=0;rounded=1;fontFamily=Helvetica;fontSize=12;" parent="1" vertex="1">
          <mxGeometry x="-337" y="-222.5" width="101" height="42" as="geometry" />
        </mxCell>
        <mxCell id="3uJrxtnBRZQrfx2Aj6_I-57" value="" style="verticalLabelPosition=bottom;sketch=0;aspect=fixed;html=1;verticalAlign=top;strokeColor=none;align=center;outlineConnect=0;shape=mxgraph.citrix.provisioning_server;rounded=1;fontFamily=Helvetica;fontSize=12;fontColor=default;fillColor=default;" parent="1" vertex="1">
          <mxGeometry x="890" y="-877" width="76" height="87" as="geometry" />
        </mxCell>
        <mxCell id="3uJrxtnBRZQrfx2Aj6_I-58" value="" style="verticalLabelPosition=bottom;sketch=0;aspect=fixed;html=1;verticalAlign=top;strokeColor=none;align=center;outlineConnect=0;shape=mxgraph.citrix.xenapp_web;rounded=1;fontFamily=Helvetica;fontSize=12;fontColor=default;fillColor=default;" parent="1" vertex="1">
          <mxGeometry x="1067" y="-880" width="76" height="90" as="geometry" />
        </mxCell>
        <mxCell id="3uJrxtnBRZQrfx2Aj6_I-59" style="edgeStyle=none;rounded=1;orthogonalLoop=1;jettySize=auto;html=1;entryX=0.5;entryY=0;entryDx=0;entryDy=0;entryPerimeter=0;fontFamily=Helvetica;fontSize=12;fontColor=default;endArrow=baseDash;endFill=0;" parent="1" source="3uJrxtnBRZQrfx2Aj6_I-57" target="3uJrxtnBRZQrfx2Aj6_I-41" edge="1">
          <mxGeometry relative="1" as="geometry" />
        </mxCell>
        <mxCell id="3uJrxtnBRZQrfx2Aj6_I-60" style="edgeStyle=none;rounded=1;orthogonalLoop=1;jettySize=auto;html=1;entryX=0.5;entryY=0;entryDx=0;entryDy=0;entryPerimeter=0;fontFamily=Helvetica;fontSize=12;fontColor=default;endArrow=baseDash;endFill=0;" parent="1" source="3uJrxtnBRZQrfx2Aj6_I-58" target="3uJrxtnBRZQrfx2Aj6_I-41" edge="1">
          <mxGeometry relative="1" as="geometry" />
        </mxCell>
        <mxCell id="3uJrxtnBRZQrfx2Aj6_I-61" value="" style="outlineConnect=0;dashed=0;verticalLabelPosition=bottom;verticalAlign=top;align=center;html=1;shape=mxgraph.aws3.internet_2;fillColor=#bac8d3;rounded=1;fontFamily=Helvetica;fontSize=12;strokeColor=#23445d;" parent="1" vertex="1">
          <mxGeometry x="1200" y="-620" width="129.5" height="73" as="geometry" />
        </mxCell>
        <mxCell id="3uJrxtnBRZQrfx2Aj6_I-62" style="edgeStyle=none;rounded=1;orthogonalLoop=1;jettySize=auto;html=1;entryX=0;entryY=0.7;entryDx=0;entryDy=0;entryPerimeter=0;fontFamily=Helvetica;fontSize=12;fontColor=default;endArrow=baseDash;endFill=0;" parent="1" source="3uJrxtnBRZQrfx2Aj6_I-34" target="3uJrxtnBRZQrfx2Aj6_I-61" edge="1">
          <mxGeometry relative="1" as="geometry" />
        </mxCell>
        <mxCell id="3uJrxtnBRZQrfx2Aj6_I-64" value="" style="image;points=[];aspect=fixed;html=1;align=center;shadow=0;dashed=0;image=img/lib/allied_telesis/computer_and_terminals/Personal_Computer_with_Server.svg;rounded=1;verticalAlign=top;fontFamily=Helvetica;fontSize=12;fontColor=default;fillColor=default;flipH=1;" parent="1" vertex="1">
          <mxGeometry x="-510" y="-613.5" width="102" height="102" as="geometry" />
        </mxCell>
        <mxCell id="3uJrxtnBRZQrfx2Aj6_I-65" value="" style="image;points=[];aspect=fixed;html=1;align=center;shadow=0;dashed=0;image=img/lib/allied_telesis/computer_and_terminals/Personal_Computer_with_Server.svg;rounded=1;verticalAlign=top;fontFamily=Helvetica;fontSize=12;fontColor=default;fillColor=default;flipH=1;" parent="1" vertex="1">
          <mxGeometry x="-510" y="-432.5" width="102" height="102" as="geometry" />
        </mxCell>
        <mxCell id="3uJrxtnBRZQrfx2Aj6_I-66" value="" style="image;points=[];aspect=fixed;html=1;align=center;shadow=0;dashed=0;image=img/lib/allied_telesis/computer_and_terminals/Personal_Computer_with_Server.svg;rounded=1;verticalAlign=top;fontFamily=Helvetica;fontSize=12;fontColor=default;fillColor=default;flipH=1;" parent="1" vertex="1">
          <mxGeometry x="-510" y="-252.5" width="102" height="102" as="geometry" />
        </mxCell>
        <mxCell id="3uJrxtnBRZQrfx2Aj6_I-84" value="" style="shape=image;verticalLabelPosition=bottom;labelBackgroundColor=default;verticalAlign=top;aspect=fixed;imageAspect=0;image=data:image/png,iVBORw0KGgoAAAANSUhEUgAAAO8AAADsCAYAAACc5PEXAAAAAXNSR0IArs4c6QAAAARnQU1BAACxjwv8YQUAAAAJcEhZcwAADsMAAA7DAcdvqGQAAFGxSURBVHhe7V0FYBRHGz2Lh5AQnODubsXdXYoUhxYo1pYWKG4F/gLFoUChQAsULS7F3aVAcSe4JMQud7d7/7y93bC5TJLL5WTvsq995HbWd+ftzHzzzTdKo9GokCFDhutBxf+VIUOGi0EWrwwZLgpZvDJkuCjkNq8LgbwrpV6v94iJifHBb39//0iNRmPgV8tIY5DFK2GwLKv68OFD0L179wr8+++/pW7cuFEcv1+/fp3Zz88vat68eUNKlix5jd9cRhqDLF6JQafTeT5+/Dj3uXPnKh07dqzm+fPnKz58+DDvx48fAyBmfjNFxowZ3+7fv79h2bJlL/NJMtIYZPFKAKgKQ6BHjhypDUFCsM+fP89uMBg0/CYJkCNHjlCIO1++fA/4JBlpDLJ4nQS0WV+9epUFAty+fXvL48eP1wgNDc3BMIya3yRJFCtW7L9Dhw7VzZIlyys+KVlcuXKlzK1bt4rkzp37cc6cOZ9mypTpjZeXVyy/WoaLQRavgxEbG+t17dq1klu3bm2zc+fO5hATqsr8aotRvXr1E7t27WoWEBDwkU9KFpcuXSrXvn37TW/evMmUPXv250WLFr2J49SsWfNY8eLFb6AdzW8qwxUA8cq0P8PCwtJv27at5eeff76elHiv8ehTwzZt2mwh1W0N7VxJccGCBV97e3vHiI+VIUOGd40bN96zbNmyvqT0z07bT6b0SE2UaTu+fv0608qVK3vWqVPnkK+vL0q2ONGkhoMGDZpPO19yjI6O9hk2bNgvKpWKMT+mRqPRly5d+sovv/wyjLS5s9H2lykdUhNlpp6kappx+fLlfapWrXrKw8NDZy6U1HL69OkjaOe1hO/evcvQpUuXP2nHBdVqtaFixYrn1q1b1wlipx1DpvNJTZRpPSMiIvzXrl3buVq1aifsIVoQpeaaNWu+oJ3fUqJ63KJFi+204wtETaF3796/3bt3Lz/tGDKdS2qizJTTYDCoT5w4Ua1169ZbfXx8omlisBUhqgMHDtSjXUdKeP/+/Xz16tU7QDuHmOXKlbu4f//+BizLcgZOmdIgNVFmyogq8sSJE8dlzZr1BS3z25oZM2Z8c+3atRK0a0kp//vvv6JVqlQ5TTuPmNmzZw9dtWpVd3ykaMeR6XhSE2VazsuXL5dp0qTJbrQTaZneHixUqNDtp0+fhtCuxxpeuHChfIkSJeBmST2fwKCgoPdz584dotPpPGjHkelYUhNlWkZUJYsVK3aDltHtSZSU4eHhAbRrspYHDx6smzt37ke084kZEBAQ/uuvv37JMIyKdhyZjiM1UWbyvHXrVmGCW7QMbm/C0BQbG+tJu67UcP369Z+jdKWdU0xU2zdv3tyWdgyZjqM8ntdKkLZiMfgj84sOBWlbvyQvTxkWFhbIJ9kE8L4aNWrUtORcJt++fZsR25EmQ1k+SYYTIIvXSkC81rg12gIQL6k2p//rr78+T2rwQkpB2u3MwIEDF3Xr1m0Nn5Qo7ty5U2j8+PETMWSRT5LhYMjitQLwT8aQPX7R4cCAAgwPPHDgQH34KfPJNgH8m8eNGzcJPs98UqLYs2dPk9WrV3fnF2U4GLJ4rcCTJ09yXb16tTS/6FCgdMRYXpS4KP0w9pdfZTNgxNHkyZPHooTnk6jANSxevHgAroNPkuFAyOK1AmfOnKmC4Xv8okOBsDcQL0LhvHv3Lvju3bsF+VU2Ra1atY4OHTp0bnJhdm7fvl34jz/++IJflOFAyOJNITBwfvfu3U1t2dZMCWBMCgwMDIuKivKLjIz0v3//fn5+lU2hVCqN/fr1W1a3bt1DfFKi2LhxYwd71ABkJA1ZvCkEqogYOM8vOhze3t5atEsjIiLSoe0Ni7c4PI4tERwc/G7EiBEzUNLzSVSg9Ef7m1+U4SDI4k0h9u7d29hZVWbAXLy4FvzlV9scGKjftWtXjEBKFIj+gefiLOt7WoUs3hQA3SJ///13a37RKUC1GQJGVxH6ehFJEkLmV9scaPP2799/SYECBe7xSVSgz/fFixfZ+EUZDoAs3hTg5MmT1RBKhl90CgTxCv2r79+/zwAhcyvthCJFitzq3r37an6RCghXtjo7FrJ4LQQMVRs2bOgYHR3tyyc5BRAvuosE8cJo5QhHic6dO68rXLjwbX4xAfBczp49W5lflOEAyOK1ENevXy8hBaOMj49PjEqlYgXXSK1W642qM7fSjkC1GQLmF6k4evRoLXxM+EUZdoYsXguB7hCptOlgXRbECyORrb2sEgN8n3PlyvWEX0wAtHsxqwO/KMPOkMVrAdAdg1Ct/KJTgf5X9DELRioYrRwlXoSKbdKkyR5+UYEaQMGCBe96eHjosQynEViduZUy7A5ZvBZg27ZtreBJxC86Fag2o+QVW5gRvJ3/aVdArG3btt0ixHeGaL/88sul4lkbEIvaEdV4GbJ4kwWEsW7dus4o4fgkpwJ9uqgqi9uWEIujrq9SpUrnypQpcwW/YTyrXLny2fr16yMOFgdMiHbw4MF6/KIMO0IWbzLAyBkpjVtFqQvLt7jkRXcR0vhFuwKumY0aNdqH36gFZM6c+XW7du02CzM34MOCoYrwvcayDPtBFm8SQBcMhrw5ShiWAgIRe1XBeOVIsdSrV+9gunTpIjBlCoYnojSuUqXKGX41Z3WWu43sD1m8SQBdQ6dPn67KL0oCEC0GJYjFi4+MI8WLSc5KlSr1b/PmzXdmyJDhPdrAnTp1Wi+MQMLHZM2aNd2cNXgjrUAWbyJAtXTFihW90Y/KJ0kCuB60d8V+xLhWRzqPoIo8cuTI6V999dWvfJKiYcOG+yFqflGBkVeYlZBflGEHyOJNBJgr15mjhxIDSlyUbGLxotS1t4ukGLA6N2vWbBfmCOaTuPmCO3bsuIFfVLx8+TIrmhz2GvEkQxYvFaiWLlu2rB/+8kmSAcQLoYqrpCiNBacNRwH9zfzPOKAbKU+ePAgfy2Hz5s3tYH3mF2XYGLJ4KUBXx+HDh+vwi5ICSllEbxQb0ZwhXhowgKFVq1bb+EUFZvdfu3ZtF6l0s7kbZPGaAW1HtHWl6qOL64Mnk7g6ivG06C7iF50GlMZdunRZK56tf/369Z2cFe/L3SGL1wxo60q11AVQ4j569CiPeVsSpTH/06koW7bs5aZNm+7mFxVPnz7NiY+h3Pa1PeQHKgJK219//fWrjx8/BvBJkgPE++zZM8xTFK8qKhXxwmWyZ8+evwcFBX3gk7i2r2x5tj1k8YqAElfqrn2oIt+7d68A/vJJHKRQbRYAl8nGjRvv5Re5tu/SpUu/lPt9bQtZvDykbGE2B+JGi7uKAIjXPM1ZgM9z3759l8OVkk9SbNmypa3sdWVbyOLlIWULszlo1lt4WUlFvEC1atVOiocPYtjikiVL+os9w2SkDrJ4CdDGRVvXlaNAQLxSEgat9N2xY0cLGAT5RRmphCxegn379jVylVI3MeDDI7WPD0pf+D/ziwo4lyxcuPBr8YgoGdYjzYsXJRZKXVcfwoa2utSs5Ch94f8sDtqOwR67du1qxi/KSAXSvHiRkU6cOFGdX3RZoNR1pH+zpcBQQYz35Rc5DzGUvo4K3ePOSNPidScjCoxVUuouEoBhggiVIx7EgIna4HnFL8qwEmlavO7UfYE+VKnGjkLYHPGE3bhWNFUQ2I9PkmEF0qx44TiAfl13cRxA95FUxYshhH369PkN0Sf5JAVCxP7222995EEL1iPNihdB5aQUm8oWkHI7EkHbMecRZnvgkxSrVq3q4ezpY1wZaVK8Dx48yIevvrs5y2MAvLnbpJSAEUfVq1c/wS8q4KO9YMGCQbLjhnVIk+LFF//mzZtF+UW3AarNUvKyMge6jIYNGzYHwev4JM7uIM/tax3SnHjR1kJ4Fn7RrYBxvlL3EsOABXHXEfqm586dOxT97XySDAuRpsSLKiWMVBgPyye5FdBVJMW+XjEwPSlK37x58z7kk7gx1Ij1zC/KsBBpSrznz5+v6M79ixCuKzg/lC5d+uqgQYMWCMYrjFFG2xe2CG4DGRYhzYgXRpFFixYNdNS8Ps4AvJdCQ0Nz8IuSRo8ePVbVrVv3EL/INWfQ9ytlg5vUkGbEi6rZ9u3bW/KLbgkhRA6/KGkEBwe/GzVq1DRMl8IncYZEeF/xizKSQZoQL0axoFom9fagLXDnzp1C/E/Jo1atWkfR9wsnDiyjVjRnzpxhrhAQQRIwGo1uz7Vr13b28fGJxu26O2vXrn04MjLSj/YcpMiXL19mIdXng8L14z2tWbPmC9q2MuOTmuhOJF/zzNWrVz8uzuDuzJCQkKek/ViM9iykyqNHj9bMli3bc+EeKlSocP7p06cIskfdXqaJ6gkTJpDn5b6AJxVhX3KzaaKJgH5T0jwIrFOnzmFSimn5ZEkjV65cT8gf5ZEjR+qwLKt+8eJFNn9//0hSiziqVMquz4nCXM3uxPv37+crXrz4ddxmWqJarTaQj/J4hmFUtOciRZIPTkCnTp3WCfeQPXv20FOnTlWlbSvTRGqiO5B8wZWjR4+eIs7UaYmohp45c6Yy7dlIlTdv3ixSpkyZy8I99OzZc6Ver9fQtpVJHhEt0R146dKlsjlz5kR1LF6mTkvs2LHjX+/fvw+iPR+pcu/evY3KlSt3sUSJEtdWr17djbaNTBOV+MfdgP7Or7/+eiFcIfmkNAnMXlC/fv0D8CUuXLjwbfStguK+VamB5EelMBcTBjII3UgyKBAr2V24Z8+exoGBgZhuw+jt7R0TEBAQHhQU9B5Mly7dR5KpdViXVog2sK+vb1TBggXv7N69uwntmcl0PbpdyYshcejox1jR4sWL3wgJCXmWIUOG97BekntVwmED414xZci5c+cqnT59uiqsm/zubguUthMIEEsZJTKfLMOF4XbiRXULfswYvUKbABrA+sePH+c+derUZ2vWrOkG10l3G5gvwMfHJwaeTN9///3PtWvXPmKvaig+jPhwwjsKcwWDmPwMQ/3g2YYuLMwjjI8nnjWuAx9UPz+/KARmz5Qp0xsEqcP0oKja4/3xh5aRCNyyzWsOZCxkoOvXr5c4evRoLRCO8Bi87i4xrATgg4XB7ug7rVq16umWLVtur1mz5jHSdPjIb5Iq4FliAASGHyIOGOZNun//fn74VOODCBdHtFnxvPGRhP0huWeMa/b09NSRqn00aggYLli+fPmLuH5MGZo1a9aXcts3IdxavMhk165dK7l3797G+/fvbwjxIlPxq50OQWgIj4rRNMjoEAe/OgGQwbEPqr3YB6UqRInpNJHpc+fO/Zi0a+9ihnrEjEJpJo4ZZQ0wmTeaGfCZvnXrVhHw7t27BTHvLoYfYvC/vT6AKH3z5cv3QDC6VaxY8TzumV+d5uGW4kWJCrFu2LChI6rGKAn4VZIChIjSpXv37qsRWRHVSYiYVoXHtiiZUALhLzI2qpyYlQAZGkxN6YSPBqq9qOpCmBDpv//+WwofP9gHIGBUe/nNHY706dOHN2jQ4B/EgEZNAvfNr0qzcCvxotqGmEh//vlnV2Q6KcdzEgBRwqgGd0bMKF+hQoULWLZX5oRIIUKUmCg5YdhDtff27duFUbpiQDyEKrRN+d0kA4i4bdu2W7799tvZJUqUgPdcmoVbiBftLIRyXb58eV8ElnNV4xOqwmjfFSpU6A4s5SiNURVGGizmKF0hamxHqw4L7Uv8FYxDMByh5oHaCISKwfrCX5SyWI+2KUTNH8YlgGbBjz/++FPnzp3XpVXjlkuLF23anTt3Np89e/a3CHFjTRQGqFzKlhCIFVZZVJXRvsVviBjtX3PB4XlAtGinomTFb2HZXu1SZwLPpF+/fsvGjBkzRTyZWZoBxOuKhB8sfF9Juy8St5EiKk0kwjUStXN/qdtZSFR9Qdo6mfYlaeczpBq9+eHDh3lo+cSdSU2UMkmVULNp06Z2Vo8W4oWL3xCuB/83NQJWqshfFRGvcGzu+CoTuXUiis6PcwofENB0PH4/m5M/vvgazUnWC9f0iapkaNrP2WzQoMH+e/fu5aflGXclNVGqJG04/ylTpowWXB9TTLGASMbzJGnePDUkXU3S1aQloVLzguT349L5zE3qqZ8yLEnjtiPbc9QQAavV5C/oYaIH+R1Hsp7bxrQfqcdy5/Yj9CHnVSvINkqyT2JUaJKkKhGa1vMiVoqIaxeun/yFGNUJqEmGFBHjWdEo3sYOhIDTUgnsMm1eGF3QtlmxYkVvq6zIJHeBMPR4ajx1nipPvhHIKvRGVqXWGzT+er2HhmVV8B2ENUj4C7Mv/oqfFNdOJsdjiZpZrEDrEwPHiSo5eQtQilrURv439+AVCg+ySEpcjsjdseSADI4j3l8E8sr4X5bCrDWPa8HxBQi/8ZesQkeTkntQAujXIQauiI07j9nxzZHSy7cC6A9evHjxAPRx80luC5cQL4Q7fPjwmZjpICWWZPR7wtUOjgtFixW9WbBIwbshOUKeZQwKfufv50/ayigOjAoDY9DoIiL9X/69s82T9Ws//xAT4xOhYlWPDKwCVhAwjNCbZEyD0osTrIFliaCRbY3cMkRnVJF/yP9cJjXlauGfOEC0KAOxmanQM0kEW0HA4q3j74n18d+VsBRvOxw4MSS1DgeLO7zwiM0ftfkVkfXxjmm2Pv7lmsH8WLYB3jlGlM2YMWOEuzt0SF686MpAnx7CgloqXHx1P/vss1OYWgNOEHC3gycTb1RKFI/nLRobNfl/k6JIuQ6+ZKMVrwzRihdRUYq3pPh9oFUo0CeBEhnE0CSUysLvKEJDvNxMhE3+FbKpeWeMcDXxbypxhZmLF8cVUuKkIOye+GESwvypxJX84isTzhB3JoJP6z1IOqpDHqbFBEDNxfTsaMe0LdB19PPPP38PESf3zl0ZkhYv+h/Hjh07GV1BlnQDwbG9ffv2mzAbXalSpf5Naf/f29HjZsb+8st3KEHxVFCiciDLsSpPRbjGT/GBVSs+MrGKCFaneBjxRvGerH5HiNIZZm+U0PjcQ9QQtIEwrgpOjscdk8+/n568Kk7IpMXNlcxGUsVGSSxAyf9HtiT/Ydl0EPEHgavC88umdHIMHAfvGHV71IsTaO/TAYRzYyPTmUwXZdoC12PaRdhDeCH460MYSAhXNogYTRLcO5C7ePEbhatXP7Hl2LGaFxw0wVv27Nmfr127tgsGZfBJbgdJixdOF0OHDp2Lfko+iQq4CUK0Q4YMmYepNKz15w37fvhcdu7cIR4ke6pJJleTR4N2KZeNVWpFtIevIpr8jSVy1JL2ozG9jyKS0Sk+6rVE1CrFK9ZXEa7UcGmRSkbxPPID2Y4ImeRuRqM0vowl1WxSEhiMRiUyNkfyG28AhK4gDIhBSAORhr+CGATxAEI5JmgS25mDlgYI5wJwHIgOy0jHskAPcs34i3k4NeR6hW0CNDDvkR8EfgyjKOmbThFE2vweHh7oFVAEBpnmDstYscLJqksWdjx19mz5z3v0WOWoScXgtQbnHYxU4pPcCpIV74ULFyp06NBhY3IzACBCxLhx4ybBZS41njZGUiV/PmzgMr8ly3qTLMllSmRY/PUgxRieE2NUcyLWkAyqVMNkDPExCoY1KBiyzBBxx6pVimgi3miyfQz5AuhJTterVIpYIt7X4R+NjFrFsmqlkSV/X0ebSmW8gVjSVntJ/uIGyLmIXIjA8Zeko9bBaDSGSINBw5BlsQ8zo9d7sCIHDA08sPj1uH4DWa8myxryQTPodJ4Y1KAk26vIspLcM7dMjg+n5dyEECjOTS5CGeRNLhSfG6VS4cOyyvQ6pdKbQZc2eT6kiA4I8De138k/HiyrCNCb/orzFLbF3ehG/Tgjz/Dh48ZPmDDhf9OnjyQ1AnKR4s8Qd9/8L9sAzwlGzvHjx08UPzN3gSTFC++gnj17/r558+Z2fFICkExhxGgTtG1Q2vLJVgPifTK0/4oMS5b1gHgBoVRRkwzIGliuKog1alKFJjmDKIfkBzw/WJixjJUsQ46lJ1VnI1dt5qqyZBVEjGozER/XL8WiP4r8ZTRqI6tUG7UqjfGj2o/sR9aRo5JN9QzLIIMzRobRELnpoxUGTSx5Y6Qaz+C9cdVrg8GTJQIlp+JE4uHhpVUpTSZuXI7KwHhCqBq1kiFC9vJQE7EajRoPkmZUsuQKlKSuQERJrjuDLpYrQVVKtBvIZqSqTT5ZOJTCk9yrv9ZI/pLj8g8GokWZryKbqxhSySdtA3wwcF4Y3vFIBITWrXMm09YdDSKionx7kWbN7kMH69lbvABGW2GAijtWnyUpXrRV+vTp8xtc+/ikeIBwO3bsuGHWrFnfoZ3LJ6cKEG/o0AErsi5c2oNP4jIgwOVRAjwqGJRN2VMMPpcKydxflpTUMFiRUgriJ2lcVkepzZVGRMj4h0sjpRVJN6g8uO0EiN8Np2ZyBH6XRCF8cAR80s+nggfnF+4JwDL5hCg8SRr+CkB7WQDSIVA0JwSQj0TcCbkmNX6K1mO1gKhK5S9779rXUB0c/PbS8eM12nbpvO5ZaGgO3K+Kv2nxvdNgbV5t3rz5TgxWsdWYZskAD0RKRLRDTNmBS6ORZDT2888/X49pMmj7W01SLXw7eOBSkveQZTkSodBJCs94JLXLBEQ62TbecUj25khKWhM9ePLLKuzH70ujcBwrmeh9Ccen3YOYie0nWiecw/w8huJF/2NDQ7MLz3vu7Fnfent66MjXBTUJjuTdJklafrCEXl5e2hUrVvSK977dgKKKjTSAcbiIK8UvJkDDhg33o8S1uRGCZA5/DTefkU0hLn24hXgJaQdKlpcxj569+/zWolWrbaQNQhrqJBkubHZ6NOi1WLhw4deI/MEnuQUkJV5Uk9E+wcPmk+KhWLFi//3vf//7wVZVZXOoNRr06MhwAALSpw8fO27cpMIFC9/mk+yKK1eulMEINH7RLSAp8SJ6w8mTJ6vxi/GAQdgTJ04cj/5bPsnmYAPSRfA/qUDJwBG/kYCSgist+BRhGUTjGHafT2tJOqlMCuSAv/zvuDT7IUHBL1xrYhB2iCPSRBSDXxZvLobR00OvMItaWbJEyWtjRv041d/bLwq3jy45Uj1OQAHmyykBLPZ79uxpkljB4IqQlHhPnDhRPbGZ67t167YGwdT4RbuACQhIUrw2hVisDhCu04HIIJSQs+3bt9/Yp1uPVbBi2zszYsw3Qvrwiy4PyYjXYDBoEit1EVANDhgYgI4QomgTIwgav9pmMAYFhhlT0x9oJOWrmATodREoeZhfvzlTAdbfN5oTsBnQNz/8++//V6Ny5bNiS7Y9gPjciNXNL7o8JCNehBJFOFZ+MQ7oXEegcEQR3LdvXyN0EcFoNWLEiBk2j1EVHPxOYaV3loykoQ0KDKeVvEBI7lyPR02YMCHYztEw4BuPAsIoMpy5MiQjXsRUolkDEWQMUQMnTZo0Dj7LEDCcOEBbvwQlMo83KR1wVEKUNWKaJ8TrF+FKDX5HnpyTg4gJSzJ8JwjN07GKxpTCSF6vmOZIcPz415+A5tubMwnEZsv+RqnRCB6eCVC7Yf39A4YMmu+h8mDEQ/3FtAWuXr1a2lHumfaGbZ6IDQDxImAavxiHkiVLXps8efLYqVOnjkbpzCcrcubM+RTVaH7RJlCmTx+mSJe00coaGH19o42mfsq0iyzZXiqSeAaoYQ0YOHBho8aN9vJJdgGCxCOv8YsuDcmIF+FGEfWQX+SAF4qA6Qjnaj6qCNVopY0FoQkKeq9Inz6cX0wxEpS0SCNVcWWnTusVNv7Q2AUJagBmTAW8soc85X8mCoy9Hj9h/Pi8+fI+4JNsDpS6Dx8+zMsvujQkI16UqubVYLRRMBDffBwvRg1BvPyizaBCMDsbOn8YMYZ41I8/Kdu03UK+RHY2x0gXRi+vWI+cOR/zi0miXPlyF0eMHDHN29s7RvAksiVQQCQ32MVVIBnxImwp/zNZIEIC5uLhF20GlY9PtDJnLlJC4LEkJHxvLSUTkC5CNWXqaOU33/yiePMmk0Kr9eb6iEFyNJtkSbQDxW1BYdk8XUBy6+2FwMAwdfbsz/ilZNGla5c/v+j2xRp+MQ62EjNmhOB/ujQc+AZtB8wqZ5c4vSgd8+Z9yC9ZDbRvVV8PWqAYMGAxqT6ojIcP1VW6iYXTKmTL9kKdNesLfilZ4OM8YtSIaRUrVTxH5Mqn2g6ozZnX8lwRkhFvStqv8LbCDAL8ok2hLFvukjEoCNEprYayWLH/VP2+XKqAdfX8+YrGAwfq86scAzh90Bw/hPTE1tsaQglfqNAdZUBAimwJefLkeTRx0oRxmTIFvyF1GZJiu+vFNKTWBOiXGiQj3pQM1xKm/uAXbQpjk8Z72C2b27G9eq1ksmZ6heF6DHlKqAojsgbIbcdVgVVxND1K/nfjJntJ7nukwJC3cWMnK1+8yIbPPD5PHPGb0J2B58Nq1Iyu6mdnDf37L1Um0sebFOo3aPDPN99+O9vWk4FDvAY3mEFCMuKFIC2NdoApLW39QgUoEYmiVq3D6iWLv1Lv3NVMSTKPPl/uhwY1kR2ES4hxqxiXiwgZeqVGwRAaEUTG6KlgNN4GtmrV0zgWs/3v1sqDB+pzQuX3NZE8djFTC+E45iWqsGyebiniXTMSRBDdB/dT+CJBtORZMQXy3zf+NGW0ZsvGNh616xwka1IM5Iev+vdf0rxVi+0JBirLkI54MZmWpYJEKW0v8caBHF9ZrvxF1Yyfv/fcta+xesLEccYSJa4b4xwNIAZBFCaqjIT+6SLUuXKbLKuenjoG43OFjM1BMo885RDuw0xHgpEOMOYMeaYY/v3P6h27mqmHf/8/VQraujTAvjFx4qRxxW04IyBinmGyNn7RZSGZnITxuZZWnfHwLS2lUw1yHnXBgnc0o36cqtyzp4li7pxhbNUqZ5REmB5ErB5Gg0KNgK9KHcnXOoVGoSc1Z1Mxp6pc5QybLetLVLuFEDhsntyP2Yb1/2E9RJmHK7pMPyUFQaycMEkJy3pyNMWGNGUd3JterTYyefI+Zr8bPkuxc3dT1ZSfflQWKnw7KaeMlABDQSdNmjwWNS4+KVXAZG2yeG2IbNmyvbB0gL3DhMvDSNpHRrjUZc/+XDnw64XqbTtaaJav7KVo2GifwtcP4Zo/ISw8vfLylTL4iQysrFv/IEMeMzI4W736CeWGvzoqBg1awHgghhS3B4EVr8EW1e0UANeKjw8XgwtCJs0GA7kHQ9Eit5Rjx07W7NzdRDVt+ghliZLX4vzD8dzgFWfWT28NmrdosWPYsGFzaKJDfkhJnnCbGQWFvjNnMzY21rN169ZbcUnJccCAAYtox7AXDe/eBes7ddxg+O6b2ey1f0siZA637uPHdAwpjXVduqzXZsr6jlV4k1RvI1uq4lXjjf+KYRv25OnPops126sdM3oa8/RpTqTp5vzyrVajMepVGiOr1JAUITwOOV0SJO1sM2J/4Td9H1vRQPSq1aiM0R4qozZdQJSuVq1jhkWLv2aePMkV9zwEGgxq9szpKvqv+i7Tft1/CRsTQx6MaL2V/PDhQ2Dnzp3XivNC3rx5HyxatGjA7Nmzv8mcOTM+/vHyCo3z588fRDu+q5Ga6CxOnDhxHO1hm9PR4mUiItIZqlU9pdcojPpC+e+xWza3FWdYVqv1jjl9urp24OAlTPY8oYx3xhj9lu1tufVkOyYmxsfIMESdZJn8je7R7c9IT40xVm0mXnJvNOEIjC9c0LS/I8Sr91AxsblzPIvq231VzO5dLZiwsEDh/uNRp/NgFy76OjYk6wuth8IY3bnDxrh7twEfP36cq2nTpruEvPDVV18tYckzfvr0aUiBAgXuivMJjYhntXPnzma0Y7saqYnO4p49exr7+HBxpBI8dDEdLV4W4q3+2UmI16AmIsqV5zF77nylBNvq9Rr2yuUy7Nq/OkPwCdYTohSKaNFkXwQRL0pfyYs3MH0YW7fOIXb2rG/Z/24UY4k4afcl0LBjR0ttxgwf9OQ5ceLt2vkvW4oXDA0NzT5p0qSxAwcOXHjr1q3CSHvy5ElOS8RLmmfP//vvv6Lmx3RFUhOdxWfPnuUoUqTITdpDF7NHjx6/42tLO4Y9iOouU6jwHdJyM2VoIjT98JGzaNsmS1KljOjZc02khyepgpKqs1oQromCEE0UlpMj2Rb2pLjrEyg+Nj4S5jTtb1CBpg+TXqNk9YGB4bGf1TgdM37ClNhTp6ozHz8GUO/FjBB2zOefb4xFDYUcKxbV7Nq1T7Dhlu2fEoaFhaV/9+4d/OG5ZUvFW61atRPh4eE2vx5nUDIGKwDdRVWqVDnDLyYKDB00H4FkTxj3H2iofPQ4N2dDJlmAc9q4d7sgaainPB6SWs14t+u4UeMfFA4HEL3a5AQCAxD6i+MTaTxxTqVATJsipimdO07cG8UPT3K5CH2N2WLERBqsxp4KhJLXe3gx+pAcL/SNG/xjnDRpnGrHjuYeu7Y39R4/bqxn1aonVOnSWdQLwH78mF51924BjL0V5j1SXf23JHvqFDVCijUgmVa5cePGDphErlWrVtsuXrxYnl9lESpUqHDBbeI3m6vZ2Vy3bl0nDw8PDJ+L98UUE3GdIyMj/Wj725Skusfu/6chk7/wPVPpRZIJUVLpW7XZZtRqvaj7JUdSQjFLlvePzp/3EaqWptITBixP0g4WaGoTC0QJbSoh+VLSnKSk46r0hHHXqfQ06pW+RoPCnyyTwoaQVaZnWa9MWjZHkWdMjcbHYoZ+Nz9iw/quMbdvFmOio3yp12shmffvMxgqVLgoXCcMciBTpcrZ2CtXytH2SSm3bt3amnzk0XfM5YXBgwfPQ7olJS/au9jf/JiuSmqiMwnDQ7FixW7QHr7AkiVL/vvmzZuMtP1tQdbAqGOuXi8bMW7ctMicIS8MJAOKxQuxMd//8DNtX4uJD8P1G8XZKVNGsw0a7Gfz5buvDwoK0/mli9Z5+WBWIQNHXx+tLp1/lC448IM+Z45nhrKlryCAuV6tZAXBQryoOgvtVNbfL5LJnPFNbJ6Qp9HFCt2OqlrpfGyLFruYgYMXsbPmfmvYvbcpc/tOYeNH0i63ZfODtPkNnbuuw/MyZ0ThYvfez549Kub2naLWnnP//v0NcufO/UicF+rWrXswOjraxxKDFfIVtqMd2xVJTXQ2v/3221m0hy8wJCTkqWCosAeZqCi/qDadtoV5a4yRpOaJUiSeeDWeenb16u60fa0hEx3tq3vyJHfUpcsVPx461Chs+/b27zdt7vJhy5ZO4Xv3tog4drSe9vLl8szduwWNpJ3HTp82Ulza6jMEfmA0agN3fRBv3z7Lmf9uFNPfv1tAF/osxBD2IYi0Rz1tKtREyEyZOoYmXpTAXBt48NBFaPfT9k2Kp06e/Kxw4cK3zPNCjhw5nn333XczBw0aND8IwRTM1ouJUtqRthJ7k5robJ44caJahgwZMO1tghcA+vn5RR45cqQWbV9bUT9v3tBoIlwtnIriGYGwTDJk6XL/stu3t0RpQ9vfbiQltqFv79+4bitCnZfawAzsv1ifO+SpcH1M9c9OMu8/GXMcQTZG663/fVUvfb78DxMTb4y/f0z09u1taPsnxSuXr5QpV6bcZVpesJSknRt+8ODBurTjuyqpic5mTEyMd7t27TbRXgKoVCrZZcuW9aXtazPeuFEM1c5YtElJKUdOHEehfaoPDn5vGPXjdPZpqOOqYh8/pjPUqHYiTrxZgt+yRw7XZpo12Y2PDKgP8IvU/rO3MXV/O1B/525h7ZdfL9MGBEXShAtCvNpyFa7oX73KSjtGYkQNq0a1GifUpvFcVhN9wxEREQhaSD2PK5KaKAVu3769BUpY2osAhw0b9gttP5sxNtZT16nDBpS8GDhDTirqhiEZEsYgUmXVemoYQ8Wa53VrN3RNrG/XlmTv38uvy5vrMc7N9TtXrXzGGBaWnpn20yjOuEWqprjmyKEDFtm7mgzPs4ilvw58W6bizXCPQGOsypsI9VMXlmC4AnFt2h9GzKQdJzE+evQod6MGDfdjCm9+Gm+rCEPVX3/91ZF2DlcmNVEKhDW5RYsWmCEhwcsAYaiwt8VZv3pVjxhvtYGz4EK4ICdkk3UY/ZkgJ2TfoOjYFq13GbbtbGWM4MLScsewNQ3/7GuoTecTzYmXkBkyaD7S2ePHasQEZQ6P1nhy4o0qmu8+c+9eAfP9bUHmw4cg5o8/vtDVrXk0ws9LF+7pb4zQBHDPgbMN8DUAMbWBARH6g4fq045H44sXL7K2bdN2iyDc1Ii3Xr16BzD7JO08rkxqolSI0tff3x+hWBO8EHsbrUDDw0d59YUK3+VKOEKImHOGIJkRpYnJEcH0O65qSKqO+matd+k2be3AmMKtUI9tLfVXr5SJnTxxPDNxwgRmwoQJxnPnKnLrSOlrmL9osH7CpInMxPETmKmTxzB37hQy399qklLc8OJltpjfV/eOqVP/iM7HT4vuK5T0KFVx/2KjXtzHjqeuRo0TjIUCgvNFj+7dV6lJ84jvuuZIywfJEbW3zZs3m1xV3YzURKkQXQCYi5f2UtAXvH79+s9p+9mMDKPSDxyyiGtfkravYN01iddU8nHCJr9NFKqJRMi+/jHMZzVPsbPmfGu8eauIww1btqJW68VeulKWnTBxgqFsuSt6Lx+d0I79RNREyObkvSRG3Yzpo6jHN+NH0qb/+uuvF6jVavJIPwnXWvF27Njxr6io1PVfS5XURCkRlucsWbK8pL2Y/v37L7a36d9w8Eg9XYaAcJS6gng5xglWzE/i5ci1i70Zfa68T2J69lodvXVTB33osxBruko4kntl1v7RlR0yeB47Zepo9vmLbOL1+nv3CurGTZiM9cY9e6w2WLHkQ6N7+DCfftXqnmzbDpvZzJlfsaQUFGoc8YVLPlSkBMaHDM+FK2nJu4n7S8jmDHmqv3G9BO1cYuJjPXLEiOmCk05qxYtupDNnzlSmncsdSE2UEg0ko//www8zaC+nePHi1+GkTtvPVmRJ+zW2ZbNdCcQLWiBekFUQwrHDxzOWLVbkJtuv31J2w4aOzMOHeZNz9BdTd/ZsFSZ3zid4bWyxEjfY0Ofx7l13/XrJ2BwhLyEypnSpq1y/sGh9koyJ8WZv3yqMdn5sr26rdQXz3Wc1Gj3OFcckxIvmA7zFUBMRCxe/2S/7LU3ug4UhoVN/mvqjr7c3YpORXVMnXpTcU6dO/dGd+nXNSU2UGmF1LF++/AXzFwQr4qZNm9rR9rElYzf+9bnO3zvGGvFCuEaOQpvQRMbLNza6YKH7UZ07b4xauGCo9ty5Kvp3bzMmNgIH7efoFm13G5T8mOHuvVfFCYKvkrMREf76+vUOCm1Rfb+vlrOkNBMfJ45kX8OrF1l1x4/Uipk1fURMm+Y7YvKEPNV6a/SfqsC4Vlz3J4pF+4km8XL94kTAYvEyGTO8MxxLuk8eH+h58+cN9g+Ib99IjXgbNmy4z55eeFIgNVGKhEjTmRzk472kbt26rdbbuT3JhH0I1DVtuI9r31oqXq7UJSLjB+ibBPxJvCC2g5FLp/ZitRkyhWnLl78U07fXypjFCwfpThyvwT57GsL5TxNBM1Omj9ar0xlYha+RVfkyxmW/cf3czMUL5ZmhpJp89y5nWWbGj5uEQfMc0wVEMatW9+DuA+2+B4/yGv85VJ+dOfM7tkvntWyJEtdYf/8ICC7C61PJGTc6iROh+Jr5+4oTrUBTtTmu5EW2Asn++r49V7KkVBWepTlRMq5YsbJXYGAgQtzEe7fWijdnzpxPTp48+RntfO5EaqIUiWoV3NvMX1T27NlDr1y5Upq2jy2p37OzmTY4fViKxAuhcYMCfAlRcpFDxSMEjXWmbThrNRFAlJeSjQpO91FbtOAdPZwvevf+jc2S7aUgIiZrjpfs1X9LgUylSudxbLZB4/1GUkNh9u9vqE3nF81ZgQl1BQvcN/Tru5yp1+Agk7fIA9Y3Y5TpnOCnGgGun6v6ktIzGkImf7kuMp5cs4G7R3Phgqb9zZ1ZmFwhTw0Xz1egPU+BGzduap85Mxf+iOwSn9aIF+PBlyxZ8hXtXO5GaqJUiZEjGI9p/sLGjh07iba9LcnqYj0jB/dfIpS+yKjmQtalD/qobdpyb+SYCdOi/vfLKO34KZN1X/T5gylf4wIblOU9q1KycSUaV6pBOJ/Eyzk2iI4pnIt7TSIy9eoeRL8uU6nyOdMxIEJPI9O46V6kG0qWvB5XdSb7oxpsqgpjW9QCcD7hoyLUCEzngkdZpLdJwDpPJavLlvFNbM2qp6K/6rXi49TJEyJ/njVKO2L0z7ra9Y7q/fyicd9x18mdw0RWrWJ0P00ZnZSjyJ49exvnzIlpa+h9uCkVLzzv8IGHhx7tfO5GaqKUeejQoToobcUvDQP479+/n4+2vS0Z+/B+fm3V8he4EgklDfmLTIu/+ry5HzEbNndko2PitzExeujd+wzsmXOVjdOmjWRr1TyK6BQMEbLJEwmCMlEQmUCuNIMgQLwqkPxmmjXdxVSpdFbwZBJKZM4oVq/eQaZatVMoDYXjfPpYCNt+OqcgXIH4wOiyZnyja954j37B3CGGK5fKsuFh6c1FiAH27OJFA5jMwW8heJTa3L0ovcjzUBr1bZvvZpJocx4/dryGeBQQTaTiNHF6YmzevPmOly9fZqGdzx1JTZQy0UZCwDHzcDlTppCvPGV7W1N76J8GiOVEclOcKFgvLy2zYmVv2vYJ+PRpCDt58hgmC7pfTOJKCSF6xsc7xiR+ynpS4jHePlpO1GQ5SeL1m5HNm/eBccGCr42WGHvQFp86eYyWlNAQsFGFYLiexpjixa/rrlwuQ92H8OKFi+VLlSp9Vfz+aCIVp4nTaaxQocJ5dwlvYympiVInqkXffPPNbJVKhRCj3MvLnz//PUe9vJj167symYLfco+PkCVVeZSutG1B9v2HIGNYeHr2zNnKXKmZKeMbDOGjic+WpApWTP76xWQ9PHRstqwvDF06reNiVr1/H8SVvGQtjeyD+/n0hQvcZSFeckwmT56H+n/+SdQN8saNG8U+q1LldHJiBC0Vb8GCBe/AH4B2PncmNdEV+Pbt22B4z4hfIto79rY8c0RVeN3azmxOvs915Khp1O3Ap6EhTKPWe5mKtc4xefM/pInMXkwgVnPi9dNI1nFt+GKFb2krlb2k7dH1j0TjWBkM6piePdfA0MaWKXUjKeGiaVO3Tp1DyYlRoFi4iW0PN9ldu3Y1pZ3P3UlNdBWi/xcDFIQXiTHA+/bta0jb1uZEG/DokVpsndqHjRs3t6duA/6+pgerTm8wGYcStmttyQTiTI54/YmRrOeMUaQ9rw30j4g+eiTRsbARC5YOC2vXabv+6tVStPVg6PPn2Vu0bLndXJApoVi0IDzvHNHPL1VSE12J169fL165cmUEreNeaB3yZXek0UL/5nVmw4ewRB3umcGDFpgsvOAnI5I9mECcyRGvPymKto2cPesH2v2BsW/fZ9KHh9PjOBPCWaJH795/YlYDjA6iCdMSioWbKVOm12vWrPmCScSpJS2Qmig1YpTJ3r17GyU2rOvSpUtlS5cufQUvFe3gMWPGTDYk447nCLKxWq/IVk12azW8wwZnHaYLzxYUiw2kbQOabxePyBIU6vv3/5V2j8kRYVYHDRiwxJO8Fw05DigM8aMJNCkKwkWJ+8cff3RNy8IFqYlSoU6n80DoksaNG+/x9fWNwmiTxAR89uzZSrA44uUilpEUogQyH8MDImpUPoMYzVq1MFA9vpCYrFleMrVrHWE8PXTm61JCmhCRjqqvQNq2rJ9vFIt+4/QB4eJ0QbQC2TZttyBAAe0+EyNG84wZMXKmv0aDGR054aZWvGjjbtmypY07+yxbSmqiFHjv3r38iJYRHByMSaG4Fwdn8169eq2AsYq2z1XS5hKcODBo4d9//y1J285RZN68yWQoV/pKnKukWcnLdffMmvWt8e+/WzFenrHidSlhAsHxy1gntFvNBSyQCc7wznjy5GfssKFzzNfFY7OmuzB4gXafNGq1Wi9MXwP/c0F8anIcjrx4U0r0C+/evbuJLFwTqYnOJKpZcG8rWrTof/CYEYQrENVizJiQWLv2zp07BYW5bFBiP3/+PN6wOUeSef48O1u0yE14McHHOYF4M2d6bSRtdvSritPFZHLneszOmPEDU7PGMdp6kCZepCM8LNOu7WbD5EljdZmD39IEjBLfiLl7/vmnPvqPxeuE7bl9mjfbaal4YfHHxF9+fv6RYu+p1Ii3fNlyl9Jid1BSpCY6g3jhiAgJLxl8rYUXTiNE3aFDhw2JDQeEYPv06bMc40J79uy50lnTWzBv32Zkypa5zA0JFIlXEARTssQ1LpQrKaHEoonHcbzrZxICT1S83qQ037G9BfY39Om1QlwCi8muXtXdePt2IX2ObM9p60F982YWlbxohy5durRf+vSBYSbhgpg7wTrRapQqtmH9Bv9cv3Yt2fHAaY2kNuN83L9/P//IkSOnt2/fftPOnTubxyYzjQi5cOWmTZva9+/ff8mjR4/y8MlxwFy/c+bMGTaBAMcbP378xOjoaMzz4Vh4euoU3l6oDnPTkSRAIMngXl6xCm2MD58SD0Zvb62yUuWz3O/Xr7JwiZYAUiFQIlbzK9N+ygoVMKSSfPnwrxkMBo0iXboIhZ/ZXMMisD7e2rh5d5PAhg0bOv744+ifyAczPZ/EI+VZDXPxduna9c/fVq7oZcuZ8d0FThdvTEyMz+jRo6fOmjXrO9KWzcgnJwsIeMeOHS2+/PLLpbdv3y7MJ8cBs5+PGDFixvLly/uS6lb1n3766UdHC1jpSUo+IlAIBkwgYB+fGE7gEDANmDCaCJj7HRqag/trIYRTGYX9cJ7EgBnsfX2jlYldBwETHPxe4eEBw1OiwIdy+PDhM03vEVcgMOVIRz4mI8gHfd6C+YNCQkKe8ckyRHC6eH1IBm7btu0Wayd/+ueffxqQKvJvV69eLc0nxUFNSgpMRvXnn392ff/+fYa5c+cOxSRl/Gq7g4hXp8gZ8oybJIxPoyJdIveOGsjr15nJl0rJ/U0KfGlrDuUb036keh7MJZjBiNIUzx4fCm52eWSJhNnCGBKCwSCJ4tjhw3WGDR06lzRlyMfCOsEKyJkz59Nf5s4ZOnrsmMnp06cP55NlmMEh4kUpyf+kok2bNlshQNKWTSQLJo2TJ09W692794ozZ85U4ZPioVChQndmzpw5vECBAve2bt3aJmGVzk7A/eTL94AmXHFJrMyV64mRVBFNS5+gZBi18eHDvBCxMSwskE82acNCfXD74TgPHuTjk+KD1FAU2bI/56rODGlmxon3E41E1Kr8+e+RBSounjtX6YfBg+c/TuwcKUCVqlVPr/nzj649evb83TOp2oIMTlh2o8FgUK9evbrbr7/++mVy0ephZBK7OlpDDA0kJXGivrXoYsAcwJhdnbbeHjRs+7t1lK9/LGb+gxGJGwesUnEzLhhq1jluROxpDKzPnPUVl44hhmSbOPbutYIzalWodJ4InjNGmZObO4kzhmF4n2iIH1nHtGq5zfj+fZC+UeP9GOxv6ms2kRtIX7TYLZY8e5Y8l9jChe/iOrlrI+swxA/b6YOD3sdeoEwmTnjt+rUStSpWPBdAzufBvwcieCppBimBft4+MX179/kNLq+088hMSGqiLQihrFy5siccJmA9RghXRLxIqo/u3LlzFZOb6S05YhY5dOJLxfsGQeBi8+Z9AtEYiRghKPT5xioDjbEV650zfggLNJIPG1unwSEIJ9rDNCCfGyusIeJr1mS38fmLbGyFqufJDZIjxiebMfgt2+/LZZhdEJ5ciKEsFjDbvMUO9lloDm3ZilcR2eNTSB5YwH2Nuh59VnNRKUkJ/6Fw4YcRnt4mhxKlaRv4YxsqVrxAi0F9997dArXq1DriTc7jR0iKbSOpEXyimXhp7wvEbPWkSTPEIdO2uhGpiaklBIp5ds1DtubNm/fBL7/8Mkw8o7k5MS1FcrO9JUecFx8Oh4wwSoasNtYrql2Hv7lIExAvoV5lEq+2RPXrxpevTf3VcxcO0Wp8GcyWL96WG/jw+EkuqniJQNjPO/5lfPIkJ1Or1jGtRmMETeI1kW3eagd7/35+bZGid1CamtLxF7M8ZIwy/L2D80TT37xZ7H2e3M/hDfZJuCYygwYvEN8TiKkym7ZouktBrhUlrichqWSnSLzo8qtevfpxdBFKzdUR14NBLlKeEpSamFpu27atpXm0C4Hoe8X0E3v27GmMuFTm+xpIVfvnn38e7i0KAWoN06dPHzZr1qxv4eljfg5HM+L3Ff103moDKZpM4lWruNItNl/xh8IkZYjBrKte9yRKZYiS3ARHtlmzncbXrzOxlaueEdI4km20mGTsED/z3Zo1X+j9vGNMfbmoHpvItOuw2UiqxfD0YhHtAiTXwK1v33ETIk5if92ly+WjsmR996nqbRI54xcUye7e10S4F/A1uZ6O5KMB4XIk18IJV6AF4kUwQXjQ2Tt0r7W8efNmkUKFCt3+4osv1nz48CHRQRfOJDUxNaRNgEwjogV++eWXv8KF0fyri+Db33///f80vE+stYQ/9OjRo6c4e3Y43bNnObVlS1wTwucg5hMXIC5H7ufiKUkMR4/X0hcoeddU4kE8RGjffTeTm0m/ebOdJmGh1DS1RXXfDJsjDvuKidFwXFMJ7MlRP3DQYuyv69zxL70nOTchSnZtlUrnDTduxDk+6E+cqKHzD4wSzstRqTZGNWm2XzyWFxm5d5/ev6k0Kga2rDgKghUznnA/ibdEiRLXUMOifbylQNTYhgwZMhfXCpdczBeNPEnb1pmkJlrL48ePV8fXSnhJljBXrlyPx40bN/HBgwd5xceCV9SAAQMWpVbAKOkxs4KzY/jqFi4YrPfS6Lk2L1c6EiFlyvLWcOlyOfF27Jnzldm2nTezGbO/YYOD3xoPH6qDdP3okdO4djM/vJCt0eAYqtPiffXXrpWKKlX2RoSnpxH86OXF6n5d2p9b98ef3T4G+UfF5Mr2HPP7Gm7dKiLe17hrV1PEkubES64RtQRDUPqIiG1b48bLok069Nuhc9SeakM84YoZJ1wwvngRuqh3796/wYU13rklRoxgE88PjVogArhjoAxte2eRmmgNL168WK5UqVLx4hJZSrR94Ms8bdq0kbA2CkYtfOUhvNQKGP7QcKd0piWTCQsLjOnYaRNnvSUlL6q3+vRBH3XHj9dMsG10tK/26rWykSdO1Ga1JpdEw7kzlXX58j9iEbu5eqPj7MWr8UQvMOrI0Xrvy1e4FuHlwUZVKHfFQNq7SDeQ0jP86NH60bduFkckTPP9jGvXdmbVXgbOwkyuTeehZGOHDFrAaLXc+RF6aOz4sZM8fT1juaqyuVjFy3HP/pNwixUrceP333/vIcUSTMxXr15lxphwcf4BUc1H7DQptc2piSklYkdVqVLltPkNp5QQGUSM0Sg4Jtq/mHhqxIgR080DzllDdEU5c6SR/uGjfLqmrfZEeXqwsCprfQNjYvYfsGxOIZJpmLNnK7ObtrQ3hr5Isp2oe/AgP7NhQ0f2WgrudenSfqzSj+VC0GrUBl23Ln8yr19nxjo9KXFmz5rxQwB5B3EWZXPxihn3zFVGf/+AiL59+y2TemkLQpjjx4+fgHwozjcCM2bM+AaGWNq+ziA1MSV8+PBhHhigaDdrLVESI+r9V199tQT9tpirdcGCBV8nZgRLCcuUKXP56NGjCUo7R1H//EX2qDGjp0cXKng/xi8wJmr7zja07RzOOXOHan2CtNqSFa8bZs78nnlvCqjHoK9+8eL+IVmzfYRFmW5VTki8w/LlK17YsGFjB1eJo4zqMiJ00O5HICYvw7BE2v6OJjXRUkJUrVu33kq7SVsR8/N+9tlnJ9EuHjVq1E+p7QcG8+TJ8xCxj5xWBSKCQNRFZvfupvpnz3JSt3EwmTu3C8fs29fIEPo8hxCjGc2XrWvWfJGLtP/UCk+uH5duVY7PTJmyvP7hhxEzECTf/DxSJRx3LK09Ilol7Du04ziS1ERLiIgW3bt3X4UvLO0G7cGAgIBwVF1scU4cZ/78+YOk0JUkVe7durV1rmzZnnsoNES4nuS5kfarWKxm4vX29Ixt2qTJ7sOHj9SWQh+7pUQ7HLaVuPuygAi7hPBLtOM5itTE5MhZHYcOnQMzOu3GXIWYNX3kyJHTwsISj0ucVnmCNFeKkBoK167ljE6aT2I1Ey0+poULF761aOHCgVLtE02KCP5gjU0FNcLbt2/HdfU5mtTEpIi+ORiUPMlXlnZDrkZYstER70pVPHvz1KlTVYsWK3LTZJRCactbjSniRZgifMhdwSBF47Fjx2rAvmKeLywlphJ1pK+8mNTExIg2IgxHaIfSbsSVie4BR8w2KHVeuXK1dLkKlS8qVKSarCSlLSdaQrFlmaR5e/vGtGzZahuqyFLr/7SUMLai9KTlh5Swbdu2m50xRxI1MTHCK0YcEM7dWKxYsRtpOcDZ7dt3ClWvUec4J1wVhKsxqohQQe4ZEeGqNWpDhQqVzq9Z88cX6MajHccViGuHzcY8D1hDNBtwrKR89u1BaiKN6LKBNxTt4t2JWbNmfYE2UFozZD15/CRXw0YN90GgGGgAwrqMv74oaQkL5Ctw/6efpo2Sqj+ypYQxbfLkyWPgfUfLA9YQfcMDBw5c6MgPGjXRnJcvXy5TsmTJf2kX7Y6EIeuHH36Y4egvqbP46tWrLO3addjMlazk/jHEDxREnCtz5lffDRk6F5OEuUOtBAHbMXCF9u5TQ3wMkG8c5UVGTRQTLoW1a9c+TLtYdyYs6e3atdvkqoYYS4kPFELpCt1v6MeFgMHAgIDwL7p2/eP0qVNVXanrJynCQQf9/Obv21aEH/SECRPGO2LQBTVRIF4sBtHTLjKtELMwYEJvd2wHo4qHWSjMu/wwGgsheOFx5E6zzGOYnzCrhj2JmhuGtdrbkEdNBFH0Dx8+/GdX78u1BTHFBmIRu1M7GO8Xfdzidh8insDqvmHDhg6ubIyiEdZgfJDE79WeREAJTNVDuxZbkZoIHj58uLZ4WFRaJ76mmNAbA9Fpz8uViCodhrgJAQ/Q140uE0QfgeccbR9XJj5E/fr1W+pIb0BMu2PvKBzURBA3bKvRPO5CWBSbNGmyGwY82jNzBWKk1rx58wbjYwTRVqxY8dzixYv72+KjJMWmBT5UGClkjWUZ79ua4agYvIDCj3Y9tiQ1USCqVlOmTBntjk4ZqSFcAVG1dDXnBIjrt99+640qHXxzMT7VVs4FiFYCzywpPRM4FS1cuHCgNfkXzUUYaiFE2vrEiI8ioqXSrsfWpCaKiS8XHPhTGxTO3YiuBoTYSWzGQqkRwkVUzQYNGuxHbC+EwKVtZw1h2ESTAt53tPXO4saNG9tjAArt/SVFlLiY6wo1kpTUPFFKw47gKNsINdGcqGphFnJbjKd1J+Lr3KxZs52uUI1GhIgdO3Y0t7UPN7rS2rRpswXdLwigQNvGGYSxyJJYauZE9Rrhl+CI0rFjx79o29CI9jRC/DhykAs1kUZ8uXft2tUUYxlpF5+WiTHGCC4v5W4VfIBt2SZFlfTAgQP1ypcvjwnMjAgmiHPQtnU0L1y4UB7zM5u/p+SIUhYlJ0bNYTrRlLgCO8O/mZqYFNGugZGDdgNpmWjrwD0uLYxOQuaeM2fOULiS4t7RpELsZdq2juatW7cKV61a9ZT5+0mOiGY6c+bM7/ABxkeob9++y2jb0Yh5oJ3x3qmJyREPCFZXR5reXYF4HojGAOcGqZRCtibePYZQiudQhiNPamodtqoRQEAYoid+J5YQQwLhMil4kWHmDsziQNvWnLAh3Lt3jwvy52hSEy0h5hbq1avXCls6d7sLUd0aO3bsJGcME7MXIc61a9d2Nq+OwnCX1PxQSRFVbwzDtEU3Fdr0iBAqvjZLWLZs2Uvo1hE+ILCWW1Lq4kPdtGnTXc4SLkhNtJSIrYxMKnclJaTQ1QDDiauXwogWAScHNA3M77NTp07rrCl10Q0J6zQs9ql15Ef0DhQkKakJ4v20aNFiu7mRDb7PyVmoYY1GG9fZU6FQE1NCdCWhX0to/8iMT0QjxAcOwfpoz0/KxMcZbqGYfTGxe7MmEiciT+BjAEPf+fPnK9C2sZRofw8ePHheStx48RH67rvvZpoH4o+KivJNzsKM7iB8KKRQq6ImppSocqCdh2ksaDec1okvNdzl0FXjiNEmqSWqjhiMAV9gcdvWnBBNSkYbCRZq2AXwTCZNmjQ2Ne1dlPg//vjj1JSEZEL30fLly/vQ+mIRbIJWuxAIazS8DqUS84yaaC2vXr1aCgYD2ZBFJ9qHiEWN0S227LaxFSEuvENEUkzOrx1eZjBe0Y5DIzL8jBkzfhBmjoQvNewmtG0tIT4w8P6z1IkCHwsMukBvCe3Zo1+3cuXKZ2j7gqhKw8KeGsOcrUlNTA3xQvDyUzvLnzsTfeWY6lQqgxwgWnxQUIpZEi0FJR28j2jHohFGKThyCMZNTB0Cby/atpYQwp09e/Y3ltpacD5MFpZY0wX3j6ZNYoUO5t/aunVra2xH299ZpCamlmg7wAUvuejzaZloO9WoUeMYXPicNYshDGmIjgHRYu5kS2tMCLSP9jDtmGIiH6DNnD9//nvi/dHetdaFENeMMEWI4S0+ZmJEUw5+6Ek1V9BHbT6XNIjSun79+v9gHi7afs4mNdEWxFcK8/QiqJv5Q5H5iRj43qpVq78xkXNqra6WElU/VB8xjSVK2pQ0c/Lly3cfHky044oJK263bt1Wm9fAYPyy1o0SeQrtVUv87FGd7tmz58rkIqGgiwkCNd8f72XQoEHzpWxopCbakpjYC/1h+IqZPyCZn4iSpH379hvtJWK089CkwURZqMJaM1Ybgli2bFlf2vEFwvq7YsWKXmgTm+8P41dy+ydGXD/6mS2pzaEvGu6qyT1HlOJjxoyZbJ43UQvBPUipfUsjNdHWRNsOpnm5Pzh5QsQoiVGdTu2IJWR4jPhBXzOeP4IIpiZYPkLmJJahcS4M0EC/b2L2js6dO6+1pomAY+OjQ6vaigmDIFxULY07hna3uBRHUwYWdktqFlIgNdEeRBsHkRqsGemRFgkBoEtl+vTpI2DwsbQUgDEHboI7d+5shjBGlSpVOguDDe0cKSGqlomFfMUHAgakpAK7wUhn7fSqf//9d6uk3BUhupo1ax5NSVfc9evXi4u7NnH8n376aRTuhba9FElNtCfPnDlTGSZ7uTvJMuI5wQGmZcuW29BVcfr06SqoyaB/FdU+RDy5e/dugT179jSG0BHxEkKxpbUf1VDasEd8KPbv398A/r1JucmiugzDlfn+lhCCTMoCDkcPDChIieUe28K7CvtD+I0aNdqLUURSsyYnR2qivYkvOKpgSXWIy0xICBmjX0qVKnUVIu3SpcufcP5A5rZX1xyc9iFQ8ftDNRZdSzDoWGI8QnUZbWHxMSxhUsLNnDnzKxjcUtpnjnYwnEvwLFELhPBdqbQVk5roCKIaiJAs9oyhKzN1hEAwj7H4vcEtEBne0nHdsC6jiio+hiVMTLj4eHXt2vUPWMtTGksa26NqjA8OjoHaREqELzVSEx1FPLizZ89WgleWbI2WFmHVRfQUoSoJDylYcOGFZKkfMWpWOIb5e0+ONOGi3Y7aBtwrrekjRhMDNheMvUW/r6O65exJaqKjib42RDCwxxQUMlNOxKmGtRsfVzhj4DfatUn5OdMIy29KhWYuXJSSqHaj6g6nD9o+lhDGMnx8UuOSKTVSE51BGD9QRUtLcyJJkTBOYXwuhtnBUR+1Ikv9h8VENIuUzlu7ffv2FvhwYH9EbYQf+PHjx6vbor8VbW6UvrR1rkpqojOJsaM0zxyZ9iWqwnXr1j2Ivk+4H1avXv24te8AbWVzI1dSRAkP32F4b8EYh9FGaCentE2b1khNdDbxlYTju2zMchxhWIKHF/6mZGysOdFlhNFDKTEEYUwv+qThQQWDmCsbkRxJaqIUiBcITxf0x8mhduxLdJvA88oWfe+IZ2XJoAWBeM8YFO8OBiRHk5ooJWLuHMy4JrSFZEqXmIUB/a609yjT9qQmSo3oroBnEQKcy6WwNInB6jA40d6fTPuQmihVyqWwNIkPKlwzXc290NVJTZQykUFg4ED0vpT2O8q0D7t3777K3ebzdQVSE12ByCwYmI3B/rYwtMi0johF9fDhwzy0dyTTvqQmuhIxombYsGG/WDMbnMzUEY79GI1Dey8y7U9qoqsRnfmIQwTfV3nAv2MIV1ZMEUJ7HzIdQ64z3F0QHR3te/jw4TqbN29ud/v27cIvX77M+v79+wwxMTE+Op0Og7SV/KYyUgGNRmMYM2bMlNGjR0/Fbz5ZhoPhVuIVwDCMGkKGcF+/fp0ZIgZfvHiR7dWrV1nevn2bMTw8PH1ERES6qKgoP4hbq9VidjgN9oXISWmOGd45sZM2ddxDEn7jr/Ab++F8+EBg2d3Ro0ePVfPmzRsSEBCACB0ynAS3FK8YECAEit+enp46lmVVIAQHsYEQKpYhYPzG+sjISH8IGfvFxsZ6YT3+ghDqhw8fgvBhCA0NzXHv3r0Ct27dKoKPAbZ3Z9SvX//AypUre4WEhDzjk2Q4CWlCvDt37my+ePHiAR8/fgxQq9UMSNrGkfiLbcxLVuwjrmoLokYaiI8B0iBkbAOx87u7NUqVKvXvmjVruuEvnyTDmYB43Z1EYB6Y1R8B3Yg45W4lK4hwOBgIT3u+Mp1DaqK7EgOxMTuAPJNDyogYzxjxQ3umMp1HaqI7k7Rd1ZhMGeFQZD/p5ImZAxC1Es+N9jxlOo/UxLRARIqYP3/+IEsDqaVF4uOGGQVSGspGpmNITUxLxDSViLVkSQjTtEQEBMRzcdYkaDKTJzUxrREGLcRtatKkyW55sINpcD5Co6Z2uhWZ9iU1Ma0S4U0xwVTZsmUvpeVQtJgryZ2iLLorqYlpnU+fPg3BrOuYLY6Wud2ZCPH66NGj3LTnIlNapCbKNI0bxsTTmFIjudnp3IWYQ8rSGfZkOp/URJmfiBFLCMGDcLTuHBQeDizWTnot0zmkJspMSHSXwKiFiandbYI0TGFy9erVUrT7lildUhNlJk7ElN62bVtLOHlYM5OA1CgL13VJTZSZPIU5fDDptKt2L8nCdW1SE2VaTnhqIaJErVq1jriSiHG9165dK0G7J5muQWqizJQTYWkxnSVEIfV5lurVq3dAtiq7PqmJMq0nRJya2fXsSXhOYfoYOdqje5CaKDP1RJsYU5Y2b958hxSs05g8rEuXLn+GhoZmp12vTNcjNVGm7QjH/p07dzbDDHzO6ifG6KABAwYskn2V3YvURJm2J2bBO3ToUB3MLuDIYAAo9ceOHTtJHh3kfqQmyrQfMYLpzJkzlQcPHjwPoWXsGZYnODj47bx58wbL43Hdk24fgE6qQGRKRJzcsGFDx40bN3a4c+dOISFapS2QN2/ehzNmzBjRtm3bLUKgPRnuBVm8TgZ5/sqnT5/m/Pvvv1uvW7eu8+XLl8siKiW/2ipUqFDhwuzZs7+tUaPGcT5JhjtCKIJlOp8wKBEBd4KFOiAgIByvJyXEGGSMxb19+3Yh2vFluhflkleCQFxo0i6ugpJ4z549TTDTA3lPSU7V4uvrG92/f/8lo0aNmpYxY8a3fLIMN4YsXgkDszT8999/xTZt2tR+y5YtbTH/EtL41XHIkSNH6Lhx4yZ17959tbe3N1w0ZaQByOJ1AaDUff78eXaUwuvXr+909uzZypiOBeuqVKlyZtq0aaNq1ap1FLM9cDvISBOQxetiwJQtp06d+uyvv/763MvLK3bkyJHT8+TJ84hfLSMNQRaviwJzJ+Gvh4eHnkuQkeYgi1eGDBdFmpjdToYMd4QsXhkyXBSyeGXIcEkoFP8HaP8R+ky6jY8AAAAASUVORK5CYII=;" parent="1" vertex="1">
          <mxGeometry x="151.6" y="-422.5" width="103.8" height="102.5" as="geometry" />
        </mxCell>
        <mxCell id="3uJrxtnBRZQrfx2Aj6_I-88" value="" style="shape=image;verticalLabelPosition=bottom;labelBackgroundColor=default;verticalAlign=top;aspect=fixed;imageAspect=0;image=data:image/png,iVBORw0KGgoAAAANSUhEUgAAAO8AAADsCAYAAACc5PEXAAAAAXNSR0IArs4c6QAAAARnQU1BAACxjwv8YQUAAAAJcEhZcwAADsMAAA7DAcdvqGQAAFGxSURBVHhe7V0FYBRHGz2Lh5AQnODubsXdXYoUhxYo1pYWKG4F/gLFoUChQAsULS7F3aVAcSe4JMQud7d7/7y93bC5TJLL5WTvsq995HbWd+ftzHzzzTdKo9GokCFDhutBxf+VIUOGi0EWrwwZLgpZvDJkuCjkNq8LgbwrpV6v94iJifHBb39//0iNRmPgV8tIY5DFK2GwLKv68OFD0L179wr8+++/pW7cuFEcv1+/fp3Zz88vat68eUNKlix5jd9cRhqDLF6JQafTeT5+/Dj3uXPnKh07dqzm+fPnKz58+DDvx48fAyBmfjNFxowZ3+7fv79h2bJlL/NJMtIYZPFKAKgKQ6BHjhypDUFCsM+fP89uMBg0/CYJkCNHjlCIO1++fA/4JBlpDLJ4nQS0WV+9epUFAty+fXvL48eP1wgNDc3BMIya3yRJFCtW7L9Dhw7VzZIlyys+KVlcuXKlzK1bt4rkzp37cc6cOZ9mypTpjZeXVyy/WoaLQRavgxEbG+t17dq1klu3bm2zc+fO5hATqsr8aotRvXr1E7t27WoWEBDwkU9KFpcuXSrXvn37TW/evMmUPXv250WLFr2J49SsWfNY8eLFb6AdzW8qwxUA8cq0P8PCwtJv27at5eeff76elHiv8ehTwzZt2mwh1W0N7VxJccGCBV97e3vHiI+VIUOGd40bN96zbNmyvqT0z07bT6b0SE2UaTu+fv0608qVK3vWqVPnkK+vL0q2ONGkhoMGDZpPO19yjI6O9hk2bNgvKpWKMT+mRqPRly5d+sovv/wyjLS5s9H2lykdUhNlpp6kappx+fLlfapWrXrKw8NDZy6U1HL69OkjaOe1hO/evcvQpUuXP2nHBdVqtaFixYrn1q1b1wlipx1DpvNJTZRpPSMiIvzXrl3buVq1aifsIVoQpeaaNWu+oJ3fUqJ63KJFi+204wtETaF3796/3bt3Lz/tGDKdS2qizJTTYDCoT5w4Ua1169ZbfXx8omlisBUhqgMHDtSjXUdKeP/+/Xz16tU7QDuHmOXKlbu4f//+BizLcgZOmdIgNVFmyogq8sSJE8dlzZr1BS3z25oZM2Z8c+3atRK0a0kp//vvv6JVqlQ5TTuPmNmzZw9dtWpVd3ykaMeR6XhSE2VazsuXL5dp0qTJbrQTaZneHixUqNDtp0+fhtCuxxpeuHChfIkSJeBmST2fwKCgoPdz584dotPpPGjHkelYUhNlWkZUJYsVK3aDltHtSZSU4eHhAbRrspYHDx6smzt37ke084kZEBAQ/uuvv37JMIyKdhyZjiM1UWbyvHXrVmGCW7QMbm/C0BQbG+tJu67UcP369Z+jdKWdU0xU2zdv3tyWdgyZjqM8ntdKkLZiMfgj84sOBWlbvyQvTxkWFhbIJ9kE8L4aNWrUtORcJt++fZsR25EmQ1k+SYYTIIvXSkC81rg12gIQL6k2p//rr78+T2rwQkpB2u3MwIEDF3Xr1m0Nn5Qo7ty5U2j8+PETMWSRT5LhYMjitQLwT8aQPX7R4cCAAgwPPHDgQH34KfPJNgH8m8eNGzcJPs98UqLYs2dPk9WrV3fnF2U4GLJ4rcCTJ09yXb16tTS/6FCgdMRYXpS4KP0w9pdfZTNgxNHkyZPHooTnk6jANSxevHgAroNPkuFAyOK1AmfOnKmC4Xv8okOBsDcQL0LhvHv3Lvju3bsF+VU2Ra1atY4OHTp0bnJhdm7fvl34jz/++IJflOFAyOJNITBwfvfu3U1t2dZMCWBMCgwMDIuKivKLjIz0v3//fn5+lU2hVCqN/fr1W1a3bt1DfFKi2LhxYwd71ABkJA1ZvCkEqogYOM8vOhze3t5atEsjIiLSoe0Ni7c4PI4tERwc/G7EiBEzUNLzSVSg9Ef7m1+U4SDI4k0h9u7d29hZVWbAXLy4FvzlV9scGKjftWtXjEBKFIj+gefiLOt7WoUs3hQA3SJ///13a37RKUC1GQJGVxH6ehFJEkLmV9scaPP2799/SYECBe7xSVSgz/fFixfZ+EUZDoAs3hTg5MmT1RBKhl90CgTxCv2r79+/zwAhcyvthCJFitzq3r37an6RCghXtjo7FrJ4LQQMVRs2bOgYHR3tyyc5BRAvuosE8cJo5QhHic6dO68rXLjwbX4xAfBczp49W5lflOEAyOK1ENevXy8hBaOMj49PjEqlYgXXSK1W642qM7fSjkC1GQLmF6k4evRoLXxM+EUZdoYsXguB7hCptOlgXRbECyORrb2sEgN8n3PlyvWEX0wAtHsxqwO/KMPOkMVrAdAdg1Ct/KJTgf5X9DELRioYrRwlXoSKbdKkyR5+UYEaQMGCBe96eHjosQynEViduZUy7A5ZvBZg27ZtreBJxC86Fag2o+QVW5gRvJ3/aVdArG3btt0ixHeGaL/88sul4lkbEIvaEdV4GbJ4kwWEsW7dus4o4fgkpwJ9uqgqi9uWEIujrq9SpUrnypQpcwW/YTyrXLny2fr16yMOFgdMiHbw4MF6/KIMO0IWbzLAyBkpjVtFqQvLt7jkRXcR0vhFuwKumY0aNdqH36gFZM6c+XW7du02CzM34MOCoYrwvcayDPtBFm8SQBcMhrw5ShiWAgIRe1XBeOVIsdSrV+9gunTpIjBlCoYnojSuUqXKGX41Z3WWu43sD1m8SQBdQ6dPn67KL0oCEC0GJYjFi4+MI8WLSc5KlSr1b/PmzXdmyJDhPdrAnTp1Wi+MQMLHZM2aNd2cNXgjrUAWbyJAtXTFihW90Y/KJ0kCuB60d8V+xLhWRzqPoIo8cuTI6V999dWvfJKiYcOG+yFqflGBkVeYlZBflGEHyOJNBJgr15mjhxIDSlyUbGLxotS1t4ukGLA6N2vWbBfmCOaTuPmCO3bsuIFfVLx8+TIrmhz2GvEkQxYvFaiWLlu2rB/+8kmSAcQLoYqrpCiNBacNRwH9zfzPOKAbKU+ePAgfy2Hz5s3tYH3mF2XYGLJ4KUBXx+HDh+vwi5ICSllEbxQb0ZwhXhowgKFVq1bb+EUFZvdfu3ZtF6l0s7kbZPGaAW1HtHWl6qOL64Mnk7g6ivG06C7iF50GlMZdunRZK56tf/369Z2cFe/L3SGL1wxo60q11AVQ4j569CiPeVsSpTH/06koW7bs5aZNm+7mFxVPnz7NiY+h3Pa1PeQHKgJK219//fWrjx8/BvBJkgPE++zZM8xTFK8qKhXxwmWyZ8+evwcFBX3gk7i2r2x5tj1k8YqAElfqrn2oIt+7d68A/vJJHKRQbRYAl8nGjRvv5Re5tu/SpUu/lPt9bQtZvDykbGE2B+JGi7uKAIjXPM1ZgM9z3759l8OVkk9SbNmypa3sdWVbyOLlIWULszlo1lt4WUlFvEC1atVOiocPYtjikiVL+os9w2SkDrJ4CdDGRVvXlaNAQLxSEgat9N2xY0cLGAT5RRmphCxegn379jVylVI3MeDDI7WPD0pf+D/ziwo4lyxcuPBr8YgoGdYjzYsXJRZKXVcfwoa2utSs5Ch94f8sDtqOwR67du1qxi/KSAXSvHiRkU6cOFGdX3RZoNR1pH+zpcBQQYz35Rc5DzGUvo4K3ePOSNPidScjCoxVUuouEoBhggiVIx7EgIna4HnFL8qwEmlavO7UfYE+VKnGjkLYHPGE3bhWNFUQ2I9PkmEF0qx44TiAfl13cRxA95FUxYshhH369PkN0Sf5JAVCxP7222995EEL1iPNihdB5aQUm8oWkHI7EkHbMecRZnvgkxSrVq3q4ezpY1wZaVK8Dx48yIevvrs5y2MAvLnbpJSAEUfVq1c/wS8q4KO9YMGCQbLjhnVIk+LFF//mzZtF+UW3AarNUvKyMge6jIYNGzYHwev4JM7uIM/tax3SnHjR1kJ4Fn7RrYBxvlL3EsOABXHXEfqm586dOxT97XySDAuRpsSLKiWMVBgPyye5FdBVJMW+XjEwPSlK37x58z7kk7gx1Ij1zC/KsBBpSrznz5+v6M79ixCuKzg/lC5d+uqgQYMWCMYrjFFG2xe2CG4DGRYhzYgXRpFFixYNdNS8Ps4AvJdCQ0Nz8IuSRo8ePVbVrVv3EL/INWfQ9ytlg5vUkGbEi6rZ9u3bW/KLbgkhRA6/KGkEBwe/GzVq1DRMl8IncYZEeF/xizKSQZoQL0axoFom9fagLXDnzp1C/E/Jo1atWkfR9wsnDiyjVjRnzpxhrhAQQRIwGo1uz7Vr13b28fGJxu26O2vXrn04MjLSj/YcpMiXL19mIdXng8L14z2tWbPmC9q2MuOTmuhOJF/zzNWrVz8uzuDuzJCQkKek/ViM9iykyqNHj9bMli3bc+EeKlSocP7p06cIskfdXqaJ6gkTJpDn5b6AJxVhX3KzaaKJgH5T0jwIrFOnzmFSimn5ZEkjV65cT8gf5ZEjR+qwLKt+8eJFNn9//0hSiziqVMquz4nCXM3uxPv37+crXrz4ddxmWqJarTaQj/J4hmFUtOciRZIPTkCnTp3WCfeQPXv20FOnTlWlbSvTRGqiO5B8wZWjR4+eIs7UaYmohp45c6Yy7dlIlTdv3ixSpkyZy8I99OzZc6Ver9fQtpVJHhEt0R146dKlsjlz5kR1LF6mTkvs2LHjX+/fvw+iPR+pcu/evY3KlSt3sUSJEtdWr17djbaNTBOV+MfdgP7Or7/+eiFcIfmkNAnMXlC/fv0D8CUuXLjwbfStguK+VamB5EelMBcTBjII3UgyKBAr2V24Z8+exoGBgZhuw+jt7R0TEBAQHhQU9B5Mly7dR5KpdViXVog2sK+vb1TBggXv7N69uwntmcl0PbpdyYshcejox1jR4sWL3wgJCXmWIUOG97BekntVwmED414xZci5c+cqnT59uiqsm/zubguUthMIEEsZJTKfLMOF4XbiRXULfswYvUKbABrA+sePH+c+derUZ2vWrOkG10l3G5gvwMfHJwaeTN9///3PtWvXPmKvaig+jPhwwjsKcwWDmPwMQ/3g2YYuLMwjjI8nnjWuAx9UPz+/KARmz5Qp0xsEqcP0oKja4/3xh5aRCNyyzWsOZCxkoOvXr5c4evRoLRCO8Bi87i4xrATgg4XB7ug7rVq16umWLVtur1mz5jHSdPjIb5Iq4FliAASGHyIOGOZNun//fn74VOODCBdHtFnxvPGRhP0huWeMa/b09NSRqn00aggYLli+fPmLuH5MGZo1a9aXcts3IdxavMhk165dK7l3797G+/fvbwjxIlPxq50OQWgIj4rRNMjoEAe/OgGQwbEPqr3YB6UqRInpNJHpc+fO/Zi0a+9ihnrEjEJpJo4ZZQ0wmTeaGfCZvnXrVhHw7t27BTHvLoYfYvC/vT6AKH3z5cv3QDC6VaxY8TzumV+d5uGW4kWJCrFu2LChI6rGKAn4VZIChIjSpXv37qsRWRHVSYiYVoXHtiiZUALhLzI2qpyYlQAZGkxN6YSPBqq9qOpCmBDpv//+WwofP9gHIGBUe/nNHY706dOHN2jQ4B/EgEZNAvfNr0qzcCvxotqGmEh//vlnV2Q6KcdzEgBRwqgGd0bMKF+hQoULWLZX5oRIIUKUmCg5YdhDtff27duFUbpiQDyEKrRN+d0kA4i4bdu2W7799tvZJUqUgPdcmoVbiBftLIRyXb58eV8ElnNV4xOqwmjfFSpU6A4s5SiNURVGGizmKF0hamxHqw4L7Uv8FYxDMByh5oHaCISKwfrCX5SyWI+2KUTNH8YlgGbBjz/++FPnzp3XpVXjlkuLF23anTt3Np89e/a3CHFjTRQGqFzKlhCIFVZZVJXRvsVviBjtX3PB4XlAtGinomTFb2HZXu1SZwLPpF+/fsvGjBkzRTyZWZoBxOuKhB8sfF9Juy8St5EiKk0kwjUStXN/qdtZSFR9Qdo6mfYlaeczpBq9+eHDh3lo+cSdSU2UMkmVULNp06Z2Vo8W4oWL3xCuB/83NQJWqshfFRGvcGzu+CoTuXUiis6PcwofENB0PH4/m5M/vvgazUnWC9f0iapkaNrP2WzQoMH+e/fu5aflGXclNVGqJG04/ylTpowWXB9TTLGASMbzJGnePDUkXU3S1aQloVLzguT349L5zE3qqZ8yLEnjtiPbc9QQAavV5C/oYaIH+R1Hsp7bxrQfqcdy5/Yj9CHnVSvINkqyT2JUaJKkKhGa1vMiVoqIaxeun/yFGNUJqEmGFBHjWdEo3sYOhIDTUgnsMm1eGF3QtlmxYkVvq6zIJHeBMPR4ajx1nipPvhHIKvRGVqXWGzT+er2HhmVV8B2ENUj4C7Mv/oqfFNdOJsdjiZpZrEDrEwPHiSo5eQtQilrURv439+AVCg+ySEpcjsjdseSADI4j3l8E8sr4X5bCrDWPa8HxBQi/8ZesQkeTkntQAujXIQauiI07j9nxzZHSy7cC6A9evHjxAPRx80luC5cQL4Q7fPjwmZjpICWWZPR7wtUOjgtFixW9WbBIwbshOUKeZQwKfufv50/ayigOjAoDY9DoIiL9X/69s82T9Ws//xAT4xOhYlWPDKwCVhAwjNCbZEyD0osTrIFliaCRbY3cMkRnVJF/yP9cJjXlauGfOEC0KAOxmanQM0kEW0HA4q3j74n18d+VsBRvOxw4MSS1DgeLO7zwiM0ftfkVkfXxjmm2Pv7lmsH8WLYB3jlGlM2YMWOEuzt0SF686MpAnx7CgloqXHx1P/vss1OYWgNOEHC3gycTb1RKFI/nLRobNfl/k6JIuQ6+ZKMVrwzRihdRUYq3pPh9oFUo0CeBEhnE0CSUysLvKEJDvNxMhE3+FbKpeWeMcDXxbypxhZmLF8cVUuKkIOye+GESwvypxJX84isTzhB3JoJP6z1IOqpDHqbFBEDNxfTsaMe0LdB19PPPP38PESf3zl0ZkhYv+h/Hjh07GV1BlnQDwbG9ffv2mzAbXalSpf5Naf/f29HjZsb+8st3KEHxVFCiciDLsSpPRbjGT/GBVSs+MrGKCFaneBjxRvGerH5HiNIZZm+U0PjcQ9QQtIEwrgpOjscdk8+/n568Kk7IpMXNlcxGUsVGSSxAyf9HtiT/Ydl0EPEHgavC88umdHIMHAfvGHV71IsTaO/TAYRzYyPTmUwXZdoC12PaRdhDeCH460MYSAhXNogYTRLcO5C7ePEbhatXP7Hl2LGaFxw0wVv27Nmfr127tgsGZfBJbgdJixdOF0OHDp2Lfko+iQq4CUK0Q4YMmYepNKz15w37fvhcdu7cIR4ke6pJJleTR4N2KZeNVWpFtIevIpr8jSVy1JL2ozG9jyKS0Sk+6rVE1CrFK9ZXEa7UcGmRSkbxPPID2Y4ImeRuRqM0vowl1WxSEhiMRiUyNkfyG28AhK4gDIhBSAORhr+CGATxAEI5JmgS25mDlgYI5wJwHIgOy0jHskAPcs34i3k4NeR6hW0CNDDvkR8EfgyjKOmbThFE2vweHh7oFVAEBpnmDstYscLJqksWdjx19mz5z3v0WOWoScXgtQbnHYxU4pPcCpIV74ULFyp06NBhY3IzACBCxLhx4ybBZS41njZGUiV/PmzgMr8ly3qTLMllSmRY/PUgxRieE2NUcyLWkAyqVMNkDPExCoY1KBiyzBBxx6pVimgi3miyfQz5AuhJTterVIpYIt7X4R+NjFrFsmqlkSV/X0ebSmW8gVjSVntJ/uIGyLmIXIjA8Zeko9bBaDSGSINBw5BlsQ8zo9d7sCIHDA08sPj1uH4DWa8myxryQTPodJ4Y1KAk26vIspLcM7dMjg+n5dyEECjOTS5CGeRNLhSfG6VS4cOyyvQ6pdKbQZc2eT6kiA4I8De138k/HiyrCNCb/orzFLbF3ehG/Tgjz/Dh48ZPmDDhf9OnjyQ1AnKR4s8Qd9/8L9sAzwlGzvHjx08UPzN3gSTFC++gnj17/r558+Z2fFICkExhxGgTtG1Q2vLJVgPifTK0/4oMS5b1gHgBoVRRkwzIGliuKog1alKFJjmDKIfkBzw/WJixjJUsQ46lJ1VnI1dt5qqyZBVEjGozER/XL8WiP4r8ZTRqI6tUG7UqjfGj2o/sR9aRo5JN9QzLIIMzRobRELnpoxUGTSx5Y6Qaz+C9cdVrg8GTJQIlp+JE4uHhpVUpTSZuXI7KwHhCqBq1kiFC9vJQE7EajRoPkmZUsuQKlKSuQERJrjuDLpYrQVVKtBvIZqSqTT5ZOJTCk9yrv9ZI/pLj8g8GokWZryKbqxhSySdtA3wwcF4Y3vFIBITWrXMm09YdDSKionx7kWbN7kMH69lbvABGW2GAijtWnyUpXrRV+vTp8xtc+/ikeIBwO3bsuGHWrFnfoZ3LJ6cKEG/o0AErsi5c2oNP4jIgwOVRAjwqGJRN2VMMPpcKydxflpTUMFiRUgriJ2lcVkepzZVGRMj4h0sjpRVJN6g8uO0EiN8Np2ZyBH6XRCF8cAR80s+nggfnF+4JwDL5hCg8SRr+CkB7WQDSIVA0JwSQj0TcCbkmNX6K1mO1gKhK5S9779rXUB0c/PbS8eM12nbpvO5ZaGgO3K+Kv2nxvdNgbV5t3rz5TgxWsdWYZskAD0RKRLRDTNmBS6ORZDT2888/X49pMmj7W01SLXw7eOBSkveQZTkSodBJCs94JLXLBEQ62TbecUj25khKWhM9ePLLKuzH70ujcBwrmeh9Ccen3YOYie0nWiecw/w8huJF/2NDQ7MLz3vu7Fnfent66MjXBTUJjuTdJklafrCEXl5e2hUrVvSK977dgKKKjTSAcbiIK8UvJkDDhg33o8S1uRGCZA5/DTefkU0hLn24hXgJaQdKlpcxj569+/zWolWrbaQNQhrqJBkubHZ6NOi1WLhw4deI/MEnuQUkJV5Uk9E+wcPmk+KhWLFi//3vf//7wVZVZXOoNRr06MhwAALSpw8fO27cpMIFC9/mk+yKK1eulMEINH7RLSAp8SJ6w8mTJ6vxi/GAQdgTJ04cj/5bPsnmYAPSRfA/qUDJwBG/kYCSgist+BRhGUTjGHafT2tJOqlMCuSAv/zvuDT7IUHBL1xrYhB2iCPSRBSDXxZvLobR00OvMItaWbJEyWtjRv041d/bLwq3jy45Uj1OQAHmyykBLPZ79uxpkljB4IqQlHhPnDhRPbGZ67t167YGwdT4RbuACQhIUrw2hVisDhCu04HIIJSQs+3bt9/Yp1uPVbBi2zszYsw3Qvrwiy4PyYjXYDBoEit1EVANDhgYgI4QomgTIwgav9pmMAYFhhlT0x9oJOWrmATodREoeZhfvzlTAdbfN5oTsBnQNz/8++//V6Ny5bNiS7Y9gPjciNXNL7o8JCNehBJFOFZ+MQ7oXEegcEQR3LdvXyN0EcFoNWLEiBk2j1EVHPxOYaV3loykoQ0KDKeVvEBI7lyPR02YMCHYztEw4BuPAsIoMpy5MiQjXsRUolkDEWQMUQMnTZo0Dj7LEDCcOEBbvwQlMo83KR1wVEKUNWKaJ8TrF+FKDX5HnpyTg4gJSzJ8JwjN07GKxpTCSF6vmOZIcPz415+A5tubMwnEZsv+RqnRCB6eCVC7Yf39A4YMmu+h8mDEQ/3FtAWuXr1a2lHumfaGbZ6IDQDxImAavxiHkiVLXps8efLYqVOnjkbpzCcrcubM+RTVaH7RJlCmTx+mSJe00coaGH19o42mfsq0iyzZXiqSeAaoYQ0YOHBho8aN9vJJdgGCxCOv8YsuDcmIF+FGEfWQX+SAF4qA6Qjnaj6qCNVopY0FoQkKeq9Inz6cX0wxEpS0SCNVcWWnTusVNv7Q2AUJagBmTAW8soc85X8mCoy9Hj9h/Pi8+fI+4JNsDpS6Dx8+zMsvujQkI16UqubVYLRRMBDffBwvRg1BvPyizaBCMDsbOn8YMYZ41I8/Kdu03UK+RHY2x0gXRi+vWI+cOR/zi0miXPlyF0eMHDHN29s7RvAksiVQQCQ32MVVIBnxImwp/zNZIEIC5uLhF20GlY9PtDJnLlJC4LEkJHxvLSUTkC5CNWXqaOU33/yiePMmk0Kr9eb6iEFyNJtkSbQDxW1BYdk8XUBy6+2FwMAwdfbsz/ilZNGla5c/v+j2xRp+MQ62EjNmhOB/ujQc+AZtB8wqZ5c4vSgd8+Z9yC9ZDbRvVV8PWqAYMGAxqT6ojIcP1VW6iYXTKmTL9kKdNesLfilZ4OM8YtSIaRUrVTxH5Mqn2g6ozZnX8lwRkhFvStqv8LbCDAL8ok2hLFvukjEoCNEprYayWLH/VP2+XKqAdfX8+YrGAwfq86scAzh90Bw/hPTE1tsaQglfqNAdZUBAimwJefLkeTRx0oRxmTIFvyF1GZJiu+vFNKTWBOiXGiQj3pQM1xKm/uAXbQpjk8Z72C2b27G9eq1ksmZ6heF6DHlKqAojsgbIbcdVgVVxND1K/nfjJntJ7nukwJC3cWMnK1+8yIbPPD5PHPGb0J2B58Nq1Iyu6mdnDf37L1Um0sebFOo3aPDPN99+O9vWk4FDvAY3mEFCMuKFIC2NdoApLW39QgUoEYmiVq3D6iWLv1Lv3NVMSTKPPl/uhwY1kR2ES4hxqxiXiwgZeqVGwRAaEUTG6KlgNN4GtmrV0zgWs/3v1sqDB+pzQuX3NZE8djFTC+E45iWqsGyebiniXTMSRBDdB/dT+CJBtORZMQXy3zf+NGW0ZsvGNh616xwka1IM5Iev+vdf0rxVi+0JBirLkI54MZmWpYJEKW0v8caBHF9ZrvxF1Yyfv/fcta+xesLEccYSJa4b4xwNIAZBFCaqjIT+6SLUuXKbLKuenjoG43OFjM1BMo885RDuw0xHgpEOMOYMeaYY/v3P6h27mqmHf/8/VQraujTAvjFx4qRxxW04IyBinmGyNn7RZSGZnITxuZZWnfHwLS2lUw1yHnXBgnc0o36cqtyzp4li7pxhbNUqZ5REmB5ErB5Gg0KNgK9KHcnXOoVGoSc1Z1Mxp6pc5QybLetLVLuFEDhsntyP2Yb1/2E9RJmHK7pMPyUFQaycMEkJy3pyNMWGNGUd3JterTYyefI+Zr8bPkuxc3dT1ZSfflQWKnw7KaeMlABDQSdNmjwWNS4+KVXAZG2yeG2IbNmyvbB0gL3DhMvDSNpHRrjUZc/+XDnw64XqbTtaaJav7KVo2GifwtcP4Zo/ISw8vfLylTL4iQysrFv/IEMeMzI4W736CeWGvzoqBg1awHgghhS3B4EVr8EW1e0UANeKjw8XgwtCJs0GA7kHQ9Eit5Rjx07W7NzdRDVt+ghliZLX4vzD8dzgFWfWT28NmrdosWPYsGFzaKJDfkhJnnCbGQWFvjNnMzY21rN169ZbcUnJccCAAYtox7AXDe/eBes7ddxg+O6b2ey1f0siZA637uPHdAwpjXVduqzXZsr6jlV4k1RvI1uq4lXjjf+KYRv25OnPops126sdM3oa8/RpTqTp5vzyrVajMepVGiOr1JAUITwOOV0SJO1sM2J/4Td9H1vRQPSq1aiM0R4qozZdQJSuVq1jhkWLv2aePMkV9zwEGgxq9szpKvqv+i7Tft1/CRsTQx6MaL2V/PDhQ2Dnzp3XivNC3rx5HyxatGjA7Nmzv8mcOTM+/vHyCo3z588fRDu+q5Ga6CxOnDhxHO1hm9PR4mUiItIZqlU9pdcojPpC+e+xWza3FWdYVqv1jjl9urp24OAlTPY8oYx3xhj9lu1tufVkOyYmxsfIMESdZJn8je7R7c9IT40xVm0mXnJvNOEIjC9c0LS/I8Sr91AxsblzPIvq231VzO5dLZiwsEDh/uNRp/NgFy76OjYk6wuth8IY3bnDxrh7twEfP36cq2nTpruEvPDVV18tYckzfvr0aUiBAgXuivMJjYhntXPnzma0Y7saqYnO4p49exr7+HBxpBI8dDEdLV4W4q3+2UmI16AmIsqV5zF77nylBNvq9Rr2yuUy7Nq/OkPwCdYTohSKaNFkXwQRL0pfyYs3MH0YW7fOIXb2rG/Z/24UY4k4afcl0LBjR0ttxgwf9OQ5ceLt2vkvW4oXDA0NzT5p0qSxAwcOXHjr1q3CSHvy5ElOS8RLmmfP//vvv6Lmx3RFUhOdxWfPnuUoUqTITdpDF7NHjx6/42tLO4Y9iOouU6jwHdJyM2VoIjT98JGzaNsmS1KljOjZc02khyepgpKqs1oQromCEE0UlpMj2Rb2pLjrEyg+Nj4S5jTtb1CBpg+TXqNk9YGB4bGf1TgdM37ClNhTp6ozHz8GUO/FjBB2zOefb4xFDYUcKxbV7Nq1T7Dhlu2fEoaFhaV/9+4d/OG5ZUvFW61atRPh4eE2vx5nUDIGKwDdRVWqVDnDLyYKDB00H4FkTxj3H2iofPQ4N2dDJlmAc9q4d7sgaainPB6SWs14t+u4UeMfFA4HEL3a5AQCAxD6i+MTaTxxTqVATJsipimdO07cG8UPT3K5CH2N2WLERBqsxp4KhJLXe3gx+pAcL/SNG/xjnDRpnGrHjuYeu7Y39R4/bqxn1aonVOnSWdQLwH78mF51924BjL0V5j1SXf23JHvqFDVCijUgmVa5cePGDphErlWrVtsuXrxYnl9lESpUqHDBbeI3m6vZ2Vy3bl0nDw8PDJ+L98UUE3GdIyMj/Wj725Skusfu/6chk7/wPVPpRZIJUVLpW7XZZtRqvaj7JUdSQjFLlvePzp/3EaqWptITBixP0g4WaGoTC0QJbSoh+VLSnKSk46r0hHHXqfQ06pW+RoPCnyyTwoaQVaZnWa9MWjZHkWdMjcbHYoZ+Nz9iw/quMbdvFmOio3yp12shmffvMxgqVLgoXCcMciBTpcrZ2CtXytH2SSm3bt3amnzk0XfM5YXBgwfPQ7olJS/au9jf/JiuSmqiMwnDQ7FixW7QHr7AkiVL/vvmzZuMtP1tQdbAqGOuXi8bMW7ctMicIS8MJAOKxQuxMd//8DNtX4uJD8P1G8XZKVNGsw0a7Gfz5buvDwoK0/mli9Z5+WBWIQNHXx+tLp1/lC448IM+Z45nhrKlryCAuV6tZAXBQryoOgvtVNbfL5LJnPFNbJ6Qp9HFCt2OqlrpfGyLFruYgYMXsbPmfmvYvbcpc/tOYeNH0i63ZfODtPkNnbuuw/MyZ0ThYvfez549Kub2naLWnnP//v0NcufO/UicF+rWrXswOjraxxKDFfIVtqMd2xVJTXQ2v/3221m0hy8wJCTkqWCosAeZqCi/qDadtoV5a4yRpOaJUiSeeDWeenb16u60fa0hEx3tq3vyJHfUpcsVPx461Chs+/b27zdt7vJhy5ZO4Xv3tog4drSe9vLl8szduwWNpJ3HTp82Ulza6jMEfmA0agN3fRBv3z7Lmf9uFNPfv1tAF/osxBD2IYi0Rz1tKtREyEyZOoYmXpTAXBt48NBFaPfT9k2Kp06e/Kxw4cK3zPNCjhw5nn333XczBw0aND8IwRTM1ouJUtqRthJ7k5robJ44caJahgwZMO1tghcA+vn5RR45cqQWbV9bUT9v3tBoIlwtnIriGYGwTDJk6XL/stu3t0RpQ9vfbiQltqFv79+4bitCnZfawAzsv1ifO+SpcH1M9c9OMu8/GXMcQTZG663/fVUvfb78DxMTb4y/f0z09u1taPsnxSuXr5QpV6bcZVpesJSknRt+8ODBurTjuyqpic5mTEyMd7t27TbRXgKoVCrZZcuW9aXtazPeuFEM1c5YtElJKUdOHEehfaoPDn5vGPXjdPZpqOOqYh8/pjPUqHYiTrxZgt+yRw7XZpo12Y2PDKgP8IvU/rO3MXV/O1B/525h7ZdfL9MGBEXShAtCvNpyFa7oX73KSjtGYkQNq0a1GifUpvFcVhN9wxEREQhaSD2PK5KaKAVu3769BUpY2osAhw0b9gttP5sxNtZT16nDBpS8GDhDTirqhiEZEsYgUmXVemoYQ8Wa53VrN3RNrG/XlmTv38uvy5vrMc7N9TtXrXzGGBaWnpn20yjOuEWqprjmyKEDFtm7mgzPs4ilvw58W6bizXCPQGOsypsI9VMXlmC4AnFt2h9GzKQdJzE+evQod6MGDfdjCm9+Gm+rCEPVX3/91ZF2DlcmNVEKhDW5RYsWmCEhwcsAYaiwt8VZv3pVjxhvtYGz4EK4ICdkk3UY/ZkgJ2TfoOjYFq13GbbtbGWM4MLScsewNQ3/7GuoTecTzYmXkBkyaD7S2ePHasQEZQ6P1nhy4o0qmu8+c+9eAfP9bUHmw4cg5o8/vtDVrXk0ws9LF+7pb4zQBHDPgbMN8DUAMbWBARH6g4fq045H44sXL7K2bdN2iyDc1Ii3Xr16BzD7JO08rkxqolSI0tff3x+hWBO8EHsbrUDDw0d59YUK3+VKOEKImHOGIJkRpYnJEcH0O65qSKqO+matd+k2be3AmMKtUI9tLfVXr5SJnTxxPDNxwgRmwoQJxnPnKnLrSOlrmL9osH7CpInMxPETmKmTxzB37hQy399qklLc8OJltpjfV/eOqVP/iM7HT4vuK5T0KFVx/2KjXtzHjqeuRo0TjIUCgvNFj+7dV6lJ84jvuuZIywfJEbW3zZs3m1xV3YzURKkQXQCYi5f2UtAXvH79+s9p+9mMDKPSDxyyiGtfkravYN01iddU8nHCJr9NFKqJRMi+/jHMZzVPsbPmfGu8eauIww1btqJW68VeulKWnTBxgqFsuSt6Lx+d0I79RNREyObkvSRG3Yzpo6jHN+NH0qb/+uuvF6jVavJIPwnXWvF27Njxr6io1PVfS5XURCkRlucsWbK8pL2Y/v37L7a36d9w8Eg9XYaAcJS6gng5xglWzE/i5ci1i70Zfa68T2J69lodvXVTB33osxBruko4kntl1v7RlR0yeB47Zepo9vmLbOL1+nv3CurGTZiM9cY9e6w2WLHkQ6N7+DCfftXqnmzbDpvZzJlfsaQUFGoc8YVLPlSkBMaHDM+FK2nJu4n7S8jmDHmqv3G9BO1cYuJjPXLEiOmCk05qxYtupDNnzlSmncsdSE2UEg0ko//www8zaC+nePHi1+GkTtvPVmRJ+zW2ZbNdCcQLWiBekFUQwrHDxzOWLVbkJtuv31J2w4aOzMOHeZNz9BdTd/ZsFSZ3zid4bWyxEjfY0Ofx7l13/XrJ2BwhLyEypnSpq1y/sGh9koyJ8WZv3yqMdn5sr26rdQXz3Wc1Gj3OFcckxIvmA7zFUBMRCxe/2S/7LU3ug4UhoVN/mvqjr7c3YpORXVMnXpTcU6dO/dGd+nXNSU2UGmF1LF++/AXzFwQr4qZNm9rR9rElYzf+9bnO3zvGGvFCuEaOQpvQRMbLNza6YKH7UZ07b4xauGCo9ty5Kvp3bzMmNgIH7efoFm13G5T8mOHuvVfFCYKvkrMREf76+vUOCm1Rfb+vlrOkNBMfJ45kX8OrF1l1x4/Uipk1fURMm+Y7YvKEPNV6a/SfqsC4Vlz3J4pF+4km8XL94kTAYvEyGTO8MxxLuk8eH+h58+cN9g+Ib99IjXgbNmy4z55eeFIgNVGKhEjTmRzk472kbt26rdbbuT3JhH0I1DVtuI9r31oqXq7UJSLjB+ibBPxJvCC2g5FLp/ZitRkyhWnLl78U07fXypjFCwfpThyvwT57GsL5TxNBM1Omj9ar0xlYha+RVfkyxmW/cf3czMUL5ZmhpJp89y5nWWbGj5uEQfMc0wVEMatW9+DuA+2+B4/yGv85VJ+dOfM7tkvntWyJEtdYf/8ICC7C61PJGTc6iROh+Jr5+4oTrUBTtTmu5EW2Asn++r49V7KkVBWepTlRMq5YsbJXYGAgQtzEe7fWijdnzpxPTp48+RntfO5EaqIUiWoV3NvMX1T27NlDr1y5Upq2jy2p37OzmTY4fViKxAuhcYMCfAlRcpFDxSMEjXWmbThrNRFAlJeSjQpO91FbtOAdPZwvevf+jc2S7aUgIiZrjpfs1X9LgUylSudxbLZB4/1GUkNh9u9vqE3nF81ZgQl1BQvcN/Tru5yp1+Agk7fIA9Y3Y5TpnOCnGgGun6v6ktIzGkImf7kuMp5cs4G7R3Phgqb9zZ1ZmFwhTw0Xz1egPU+BGzduap85Mxf+iOwSn9aIF+PBlyxZ8hXtXO5GaqJUiZEjGI9p/sLGjh07iba9LcnqYj0jB/dfIpS+yKjmQtalD/qobdpyb+SYCdOi/vfLKO34KZN1X/T5gylf4wIblOU9q1KycSUaV6pBOJ/Eyzk2iI4pnIt7TSIy9eoeRL8uU6nyOdMxIEJPI9O46V6kG0qWvB5XdSb7oxpsqgpjW9QCcD7hoyLUCEzngkdZpLdJwDpPJavLlvFNbM2qp6K/6rXi49TJEyJ/njVKO2L0z7ra9Y7q/fyicd9x18mdw0RWrWJ0P00ZnZSjyJ49exvnzIlpa+h9uCkVLzzv8IGHhx7tfO5GaqKUeejQoToobcUvDQP479+/n4+2vS0Z+/B+fm3V8he4EgklDfmLTIu/+ry5HzEbNndko2PitzExeujd+wzsmXOVjdOmjWRr1TyK6BQMEbLJEwmCMlEQmUCuNIMgQLwqkPxmmjXdxVSpdFbwZBJKZM4oVq/eQaZatVMoDYXjfPpYCNt+OqcgXIH4wOiyZnyja954j37B3CGGK5fKsuFh6c1FiAH27OJFA5jMwW8heJTa3L0ovcjzUBr1bZvvZpJocx4/dryGeBQQTaTiNHF6YmzevPmOly9fZqGdzx1JTZQy0UZCwDHzcDlTppCvPGV7W1N76J8GiOVEclOcKFgvLy2zYmVv2vYJ+PRpCDt58hgmC7pfTOJKCSF6xsc7xiR+ynpS4jHePlpO1GQ5SeL1m5HNm/eBccGCr42WGHvQFp86eYyWlNAQsFGFYLiexpjixa/rrlwuQ92H8OKFi+VLlSp9Vfz+aCIVp4nTaaxQocJ5dwlvYympiVInqkXffPPNbJVKhRCj3MvLnz//PUe9vJj167symYLfco+PkCVVeZSutG1B9v2HIGNYeHr2zNnKXKmZKeMbDOGjic+WpApWTP76xWQ9PHRstqwvDF06reNiVr1/H8SVvGQtjeyD+/n0hQvcZSFeckwmT56H+n/+SdQN8saNG8U+q1LldHJiBC0Vb8GCBe/AH4B2PncmNdEV+Pbt22B4z4hfIto79rY8c0RVeN3azmxOvs915Khp1O3Ap6EhTKPWe5mKtc4xefM/pInMXkwgVnPi9dNI1nFt+GKFb2krlb2k7dH1j0TjWBkM6piePdfA0MaWKXUjKeGiaVO3Tp1DyYlRoFi4iW0PN9ldu3Y1pZ3P3UlNdBWi/xcDFIQXiTHA+/bta0jb1uZEG/DokVpsndqHjRs3t6duA/6+pgerTm8wGYcStmttyQTiTI54/YmRrOeMUaQ9rw30j4g+eiTRsbARC5YOC2vXabv+6tVStPVg6PPn2Vu0bLndXJApoVi0IDzvHNHPL1VSE12J169fL165cmUEreNeaB3yZXek0UL/5nVmw4ewRB3umcGDFpgsvOAnI5I9mECcyRGvPymKto2cPesH2v2BsW/fZ9KHh9PjOBPCWaJH795/YlYDjA6iCdMSioWbKVOm12vWrPmCScSpJS2Qmig1YpTJ3r17GyU2rOvSpUtlS5cufQUvFe3gMWPGTDYk447nCLKxWq/IVk12azW8wwZnHaYLzxYUiw2kbQOabxePyBIU6vv3/5V2j8kRYVYHDRiwxJO8Fw05DigM8aMJNCkKwkWJ+8cff3RNy8IFqYlSoU6n80DoksaNG+/x9fWNwmiTxAR89uzZSrA44uUilpEUogQyH8MDImpUPoMYzVq1MFA9vpCYrFleMrVrHWE8PXTm61JCmhCRjqqvQNq2rJ9vFIt+4/QB4eJ0QbQC2TZttyBAAe0+EyNG84wZMXKmv0aDGR054aZWvGjjbtmypY07+yxbSmqiFHjv3r38iJYRHByMSaG4Fwdn8169eq2AsYq2z1XS5hKcODBo4d9//y1J285RZN68yWQoV/pKnKukWcnLdffMmvWt8e+/WzFenrHidSlhAsHxy1gntFvNBSyQCc7wznjy5GfssKFzzNfFY7OmuzB4gXafNGq1Wi9MXwP/c0F8anIcjrx4U0r0C+/evbuJLFwTqYnOJKpZcG8rWrTof/CYEYQrENVizJiQWLv2zp07BYW5bFBiP3/+PN6wOUeSef48O1u0yE14McHHOYF4M2d6bSRtdvSritPFZHLneszOmPEDU7PGMdp6kCZepCM8LNOu7WbD5EljdZmD39IEjBLfiLl7/vmnPvqPxeuE7bl9mjfbaal4YfHHxF9+fv6RYu+p1Ii3fNlyl9Jid1BSpCY6g3jhiAgJLxl8rYUXTiNE3aFDhw2JDQeEYPv06bMc40J79uy50lnTWzBv32Zkypa5zA0JFIlXEARTssQ1LpQrKaHEoonHcbzrZxICT1S83qQ037G9BfY39Om1QlwCi8muXtXdePt2IX2ObM9p60F982YWlbxohy5durRf+vSBYSbhgpg7wTrRapQqtmH9Bv9cv3Yt2fHAaY2kNuN83L9/P//IkSOnt2/fftPOnTubxyYzjQi5cOWmTZva9+/ff8mjR4/y8MlxwFy/c+bMGTaBAMcbP378xOjoaMzz4Vh4euoU3l6oDnPTkSRAIMngXl6xCm2MD58SD0Zvb62yUuWz3O/Xr7JwiZYAUiFQIlbzK9N+ygoVMKSSfPnwrxkMBo0iXboIhZ/ZXMMisD7e2rh5d5PAhg0bOv744+ifyAczPZ/EI+VZDXPxduna9c/fVq7oZcuZ8d0FThdvTEyMz+jRo6fOmjXrO9KWzcgnJwsIeMeOHS2+/PLLpbdv3y7MJ8cBs5+PGDFixvLly/uS6lb1n3766UdHC1jpSUo+IlAIBkwgYB+fGE7gEDANmDCaCJj7HRqag/trIYRTGYX9cJ7EgBnsfX2jlYldBwETHPxe4eEBw1OiwIdy+PDhM03vEVcgMOVIRz4mI8gHfd6C+YNCQkKe8ckyRHC6eH1IBm7btu0Wayd/+ueffxqQKvJvV69eLc0nxUFNSgpMRvXnn392ff/+fYa5c+cOxSRl/Gq7g4hXp8gZ8oybJIxPoyJdIveOGsjr15nJl0rJ/U0KfGlrDuUb036keh7MJZjBiNIUzx4fCm52eWSJhNnCGBKCwSCJ4tjhw3WGDR06lzRlyMfCOsEKyJkz59Nf5s4ZOnrsmMnp06cP55NlmMEh4kUpyf+kok2bNlshQNKWTSQLJo2TJ09W692794ozZ85U4ZPioVChQndmzpw5vECBAve2bt3aJmGVzk7A/eTL94AmXHFJrMyV64mRVBFNS5+gZBi18eHDvBCxMSwskE82acNCfXD74TgPHuTjk+KD1FAU2bI/56rODGlmxon3E41E1Kr8+e+RBSounjtX6YfBg+c/TuwcKUCVqlVPr/nzj649evb83TOp2oIMTlh2o8FgUK9evbrbr7/++mVy0ephZBK7OlpDDA0kJXGivrXoYsAcwJhdnbbeHjRs+7t1lK9/LGb+gxGJGwesUnEzLhhq1jluROxpDKzPnPUVl44hhmSbOPbutYIzalWodJ4InjNGmZObO4kzhmF4n2iIH1nHtGq5zfj+fZC+UeP9GOxv6ms2kRtIX7TYLZY8e5Y8l9jChe/iOrlrI+swxA/b6YOD3sdeoEwmTnjt+rUStSpWPBdAzufBvwcieCppBimBft4+MX179/kNLq+088hMSGqiLQihrFy5siccJmA9RghXRLxIqo/u3LlzFZOb6S05YhY5dOJLxfsGQeBi8+Z9AtEYiRghKPT5xioDjbEV650zfggLNJIPG1unwSEIJ9rDNCCfGyusIeJr1mS38fmLbGyFqufJDZIjxiebMfgt2+/LZZhdEJ5ciKEsFjDbvMUO9lloDm3ZilcR2eNTSB5YwH2Nuh59VnNRKUkJ/6Fw4YcRnt4mhxKlaRv4YxsqVrxAi0F9997dArXq1DriTc7jR0iKbSOpEXyimXhp7wvEbPWkSTPEIdO2uhGpiaklBIp5ds1DtubNm/fBL7/8Mkw8o7k5MS1FcrO9JUecFx8Oh4wwSoasNtYrql2Hv7lIExAvoV5lEq+2RPXrxpevTf3VcxcO0Wp8GcyWL96WG/jw+EkuqniJQNjPO/5lfPIkJ1Or1jGtRmMETeI1kW3eagd7/35+bZGid1CamtLxF7M8ZIwy/L2D80TT37xZ7H2e3M/hDfZJuCYygwYvEN8TiKkym7ZouktBrhUlrichqWSnSLzo8qtevfpxdBFKzdUR14NBLlKeEpSamFpu27atpXm0C4Hoe8X0E3v27GmMuFTm+xpIVfvnn38e7i0KAWoN06dPHzZr1qxv4eljfg5HM+L3Ff103moDKZpM4lWruNItNl/xh8IkZYjBrKte9yRKZYiS3ARHtlmzncbXrzOxlaueEdI4km20mGTsED/z3Zo1X+j9vGNMfbmoHpvItOuw2UiqxfD0YhHtAiTXwK1v33ETIk5if92ly+WjsmR996nqbRI54xcUye7e10S4F/A1uZ6O5KMB4XIk18IJV6AF4kUwQXjQ2Tt0r7W8efNmkUKFCt3+4osv1nz48CHRQRfOJDUxNaRNgEwjogV++eWXv8KF0fyri+Db33///f80vE+stYQ/9OjRo6c4e3Y43bNnObVlS1wTwucg5hMXIC5H7ufiKUkMR4/X0hcoeddU4kE8RGjffTeTm0m/ebOdJmGh1DS1RXXfDJsjDvuKidFwXFMJ7MlRP3DQYuyv69zxL70nOTchSnZtlUrnDTduxDk+6E+cqKHzD4wSzstRqTZGNWm2XzyWFxm5d5/ev6k0Kga2rDgKghUznnA/ibdEiRLXUMOifbylQNTYhgwZMhfXCpdczBeNPEnb1pmkJlrL48ePV8fXSnhJljBXrlyPx40bN/HBgwd5xceCV9SAAQMWpVbAKOkxs4KzY/jqFi4YrPfS6Lk2L1c6EiFlyvLWcOlyOfF27Jnzldm2nTezGbO/YYOD3xoPH6qDdP3okdO4djM/vJCt0eAYqtPiffXXrpWKKlX2RoSnpxH86OXF6n5d2p9b98ef3T4G+UfF5Mr2HPP7Gm7dKiLe17hrV1PEkubES64RtQRDUPqIiG1b48bLok069Nuhc9SeakM84YoZJ1wwvngRuqh3796/wYU13rklRoxgE88PjVogArhjoAxte2eRmmgNL168WK5UqVLx4hJZSrR94Ms8bdq0kbA2CkYtfOUhvNQKGP7QcKd0piWTCQsLjOnYaRNnvSUlL6q3+vRBH3XHj9dMsG10tK/26rWykSdO1Ga1JpdEw7kzlXX58j9iEbu5eqPj7MWr8UQvMOrI0Xrvy1e4FuHlwUZVKHfFQNq7SDeQ0jP86NH60bduFkckTPP9jGvXdmbVXgbOwkyuTeehZGOHDFrAaLXc+RF6aOz4sZM8fT1juaqyuVjFy3HP/pNwixUrceP333/vIcUSTMxXr15lxphwcf4BUc1H7DQptc2piSklYkdVqVLltPkNp5QQGUSM0Sg4Jtq/mHhqxIgR080DzllDdEU5c6SR/uGjfLqmrfZEeXqwsCprfQNjYvYfsGxOIZJpmLNnK7ObtrQ3hr5Isp2oe/AgP7NhQ0f2WgrudenSfqzSj+VC0GrUBl23Ln8yr19nxjo9KXFmz5rxQwB5B3EWZXPxihn3zFVGf/+AiL59+y2TemkLQpjjx4+fgHwozjcCM2bM+AaGWNq+ziA1MSV8+PBhHhigaDdrLVESI+r9V199tQT9tpirdcGCBV8nZgRLCcuUKXP56NGjCUo7R1H//EX2qDGjp0cXKng/xi8wJmr7zja07RzOOXOHan2CtNqSFa8bZs78nnlvCqjHoK9+8eL+IVmzfYRFmW5VTki8w/LlK17YsGFjB1eJo4zqMiJ00O5HICYvw7BE2v6OJjXRUkJUrVu33kq7SVsR8/N+9tlnJ9EuHjVq1E+p7QcG8+TJ8xCxj5xWBSKCQNRFZvfupvpnz3JSt3EwmTu3C8fs29fIEPo8hxCjGc2XrWvWfJGLtP/UCk+uH5duVY7PTJmyvP7hhxEzECTf/DxSJRx3LK09Ilol7Du04ziS1ERLiIgW3bt3X4UvLO0G7cGAgIBwVF1scU4cZ/78+YOk0JUkVe7durV1rmzZnnsoNES4nuS5kfarWKxm4vX29Ixt2qTJ7sOHj9SWQh+7pUQ7HLaVuPuygAi7hPBLtOM5itTE5MhZHYcOnQMzOu3GXIWYNX3kyJHTwsISj0ucVnmCNFeKkBoK167ljE6aT2I1Ey0+poULF761aOHCgVLtE02KCP5gjU0FNcLbt2/HdfU5mtTEpIi+ORiUPMlXlnZDrkZYstER70pVPHvz1KlTVYsWK3LTZJRCactbjSniRZgifMhdwSBF47Fjx2rAvmKeLywlphJ1pK+8mNTExIg2IgxHaIfSbsSVie4BR8w2KHVeuXK1dLkKlS8qVKSarCSlLSdaQrFlmaR5e/vGtGzZahuqyFLr/7SUMLai9KTlh5Swbdu2m50xRxI1MTHCK0YcEM7dWKxYsRtpOcDZ7dt3ClWvUec4J1wVhKsxqohQQe4ZEeGqNWpDhQqVzq9Z88cX6MajHccViGuHzcY8D1hDNBtwrKR89u1BaiKN6LKBNxTt4t2JWbNmfYE2UFozZD15/CRXw0YN90GgGGgAwrqMv74oaQkL5Ctw/6efpo2Sqj+ypYQxbfLkyWPgfUfLA9YQfcMDBw5c6MgPGjXRnJcvXy5TsmTJf2kX7Y6EIeuHH36Y4egvqbP46tWrLO3addjMlazk/jHEDxREnCtz5lffDRk6F5OEuUOtBAHbMXCF9u5TQ3wMkG8c5UVGTRQTLoW1a9c+TLtYdyYs6e3atdvkqoYYS4kPFELpCt1v6MeFgMHAgIDwL7p2/eP0qVNVXanrJynCQQf9/Obv21aEH/SECRPGO2LQBTVRIF4sBtHTLjKtELMwYEJvd2wHo4qHWSjMu/wwGgsheOFx5E6zzGOYnzCrhj2JmhuGtdrbkEdNBFH0Dx8+/GdX78u1BTHFBmIRu1M7GO8Xfdzidh8insDqvmHDhg6ubIyiEdZgfJDE79WeREAJTNVDuxZbkZoIHj58uLZ4WFRaJ76mmNAbA9Fpz8uViCodhrgJAQ/Q140uE0QfgeccbR9XJj5E/fr1W+pIb0BMu2PvKBzURBA3bKvRPO5CWBSbNGmyGwY82jNzBWKk1rx58wbjYwTRVqxY8dzixYv72+KjJMWmBT5UGClkjWUZ79ua4agYvIDCj3Y9tiQ1USCqVlOmTBntjk4ZqSFcAVG1dDXnBIjrt99+640qHXxzMT7VVs4FiFYCzywpPRM4FS1cuHCgNfkXzUUYaiFE2vrEiI8ioqXSrsfWpCaKiS8XHPhTGxTO3YiuBoTYSWzGQqkRwkVUzQYNGuxHbC+EwKVtZw1h2ESTAt53tPXO4saNG9tjAArt/SVFlLiY6wo1kpTUPFFKw47gKNsINdGcqGphFnJbjKd1J+Lr3KxZs52uUI1GhIgdO3Y0t7UPN7rS2rRpswXdLwigQNvGGYSxyJJYauZE9Rrhl+CI0rFjx79o29CI9jRC/DhykAs1kUZ8uXft2tUUYxlpF5+WiTHGCC4v5W4VfIBt2SZFlfTAgQP1ypcvjwnMjAgmiHPQtnU0L1y4UB7zM5u/p+SIUhYlJ0bNYTrRlLgCO8O/mZqYFNGugZGDdgNpmWjrwD0uLYxOQuaeM2fOULiS4t7RpELsZdq2juatW7cKV61a9ZT5+0mOiGY6c+bM7/ABxkeob9++y2jb0Yh5oJ3x3qmJyREPCFZXR5reXYF4HojGAOcGqZRCtibePYZQiudQhiNPamodtqoRQEAYoid+J5YQQwLhMil4kWHmDsziQNvWnLAh3Lt3jwvy52hSEy0h5hbq1avXCls6d7sLUd0aO3bsJGcME7MXIc61a9d2Nq+OwnCX1PxQSRFVbwzDtEU3Fdr0iBAqvjZLWLZs2Uvo1hE+ILCWW1Lq4kPdtGnTXc4SLkhNtJSIrYxMKnclJaTQ1QDDiauXwogWAScHNA3M77NTp07rrCl10Q0J6zQs9ql15Ef0DhQkKakJ4v20aNFiu7mRDb7PyVmoYY1GG9fZU6FQE1NCdCWhX0to/8iMT0QjxAcOwfpoz0/KxMcZbqGYfTGxe7MmEiciT+BjAEPf+fPnK9C2sZRofw8ePHheStx48RH67rvvZpoH4o+KivJNzsKM7iB8KKRQq6ImppSocqCdh2ksaDec1okvNdzl0FXjiNEmqSWqjhiMAV9gcdvWnBBNSkYbCRZq2AXwTCZNmjQ2Ne1dlPg//vjj1JSEZEL30fLly/vQ+mIRbIJWuxAIazS8DqUS84yaaC2vXr1aCgYD2ZBFJ9qHiEWN0S227LaxFSEuvENEUkzOrx1eZjBe0Y5DIzL8jBkzfhBmjoQvNewmtG0tIT4w8P6z1IkCHwsMukBvCe3Zo1+3cuXKZ2j7gqhKw8KeGsOcrUlNTA3xQvDyUzvLnzsTfeWY6lQqgxwgWnxQUIpZEi0FJR28j2jHohFGKThyCMZNTB0Cby/atpYQwp09e/Y3ltpacD5MFpZY0wX3j6ZNYoUO5t/aunVra2xH299ZpCamlmg7wAUvuejzaZloO9WoUeMYXPicNYshDGmIjgHRYu5kS2tMCLSP9jDtmGIiH6DNnD9//nvi/dHetdaFENeMMEWI4S0+ZmJEUw5+6Ek1V9BHbT6XNIjSun79+v9gHi7afs4mNdEWxFcK8/QiqJv5Q5H5iRj43qpVq78xkXNqra6WElU/VB8xjSVK2pQ0c/Lly3cfHky044oJK263bt1Wm9fAYPyy1o0SeQrtVUv87FGd7tmz58rkIqGgiwkCNd8f72XQoEHzpWxopCbakpjYC/1h+IqZPyCZn4iSpH379hvtJWK089CkwURZqMJaM1Ybgli2bFlf2vEFwvq7YsWKXmgTm+8P41dy+ydGXD/6mS2pzaEvGu6qyT1HlOJjxoyZbJ43UQvBPUipfUsjNdHWRNsOpnm5Pzh5QsQoiVGdTu2IJWR4jPhBXzOeP4IIpiZYPkLmJJahcS4M0EC/b2L2js6dO6+1pomAY+OjQ6vaigmDIFxULY07hna3uBRHUwYWdktqFlIgNdEeRBsHkRqsGemRFgkBoEtl+vTpI2DwsbQUgDEHboI7d+5shjBGlSpVOguDDe0cKSGqlomFfMUHAgakpAK7wUhn7fSqf//9d6uk3BUhupo1ax5NSVfc9evXi4u7NnH8n376aRTuhba9FElNtCfPnDlTGSZ7uTvJMuI5wQGmZcuW29BVcfr06SqoyaB/FdU+RDy5e/dugT179jSG0BHxEkKxpbUf1VDasEd8KPbv398A/r1JucmiugzDlfn+lhCCTMoCDkcPDChIieUe28K7CvtD+I0aNdqLUURSsyYnR2qivYkvOKpgSXWIy0xICBmjX0qVKnUVIu3SpcufcP5A5rZX1xyc9iFQ8ftDNRZdSzDoWGI8QnUZbWHxMSxhUsLNnDnzKxjcUtpnjnYwnEvwLFELhPBdqbQVk5roCKIaiJAs9oyhKzN1hEAwj7H4vcEtEBne0nHdsC6jiio+hiVMTLj4eHXt2vUPWMtTGksa26NqjA8OjoHaREqELzVSEx1FPLizZ89WgleWbI2WFmHVRfQUoSoJDylYcOGFZKkfMWpWOIb5e0+ONOGi3Y7aBtwrrekjRhMDNheMvUW/r6O65exJaqKjib42RDCwxxQUMlNOxKmGtRsfVzhj4DfatUn5OdMIy29KhWYuXJSSqHaj6g6nD9o+lhDGMnx8UuOSKTVSE51BGD9QRUtLcyJJkTBOYXwuhtnBUR+1Ikv9h8VENIuUzlu7ffv2FvhwYH9EbYQf+PHjx6vbor8VbW6UvrR1rkpqojOJsaM0zxyZ9iWqwnXr1j2Ivk+4H1avXv24te8AbWVzI1dSRAkP32F4b8EYh9FGaCentE2b1khNdDbxlYTju2zMchxhWIKHF/6mZGysOdFlhNFDKTEEYUwv+qThQQWDmCsbkRxJaqIUiBcITxf0x8mhduxLdJvA88oWfe+IZ2XJoAWBeM8YFO8OBiRHk5ooJWLuHMy4JrSFZEqXmIUB/a609yjT9qQmSo3oroBnEQKcy6WwNInB6jA40d6fTPuQmihVyqWwNIkPKlwzXc290NVJTZQykUFg4ED0vpT2O8q0D7t3777K3ebzdQVSE12ByCwYmI3B/rYwtMi0johF9fDhwzy0dyTTvqQmuhIxombYsGG/WDMbnMzUEY79GI1Dey8y7U9qoqsRnfmIQwTfV3nAv2MIV1ZMEUJ7HzIdQ64z3F0QHR3te/jw4TqbN29ud/v27cIvX77M+v79+wwxMTE+Op0Og7SV/KYyUgGNRmMYM2bMlNGjR0/Fbz5ZhoPhVuIVwDCMGkKGcF+/fp0ZIgZfvHiR7dWrV1nevn2bMTw8PH1ERES6qKgoP4hbq9VidjgN9oXISWmOGd45sZM2ddxDEn7jr/Ab++F8+EBg2d3Ro0ePVfPmzRsSEBCACB0ynAS3FK8YECAEit+enp46lmVVIAQHsYEQKpYhYPzG+sjISH8IGfvFxsZ6YT3+ghDqhw8fgvBhCA0NzXHv3r0Ct27dKoKPAbZ3Z9SvX//AypUre4WEhDzjk2Q4CWlCvDt37my+ePHiAR8/fgxQq9UMSNrGkfiLbcxLVuwjrmoLokYaiI8B0iBkbAOx87u7NUqVKvXvmjVruuEvnyTDmYB43Z1EYB6Y1R8B3Yg45W4lK4hwOBgIT3u+Mp1DaqK7EgOxMTuAPJNDyogYzxjxQ3umMp1HaqI7k7Rd1ZhMGeFQZD/p5ImZAxC1Es+N9jxlOo/UxLRARIqYP3/+IEsDqaVF4uOGGQVSGspGpmNITUxLxDSViLVkSQjTtEQEBMRzcdYkaDKTJzUxrREGLcRtatKkyW55sINpcD5Co6Z2uhWZ9iU1Ma0S4U0xwVTZsmUvpeVQtJgryZ2iLLorqYlpnU+fPg3BrOuYLY6Wud2ZCPH66NGj3LTnIlNapCbKNI0bxsTTmFIjudnp3IWYQ8rSGfZkOp/URJmfiBFLCMGDcLTuHBQeDizWTnot0zmkJspMSHSXwKiFiandbYI0TGFy9erVUrT7lildUhNlJk7ElN62bVtLOHlYM5OA1CgL13VJTZSZPIU5fDDptKt2L8nCdW1SE2VaTnhqIaJErVq1jriSiHG9165dK0G7J5muQWqizJQTYWkxnSVEIfV5lurVq3dAtiq7PqmJMq0nRJya2fXsSXhOYfoYOdqje5CaKDP1RJsYU5Y2b958hxSs05g8rEuXLn+GhoZmp12vTNcjNVGm7QjH/p07dzbDDHzO6ifG6KABAwYskn2V3YvURJm2J2bBO3ToUB3MLuDIYAAo9ceOHTtJHh3kfqQmyrQfMYLpzJkzlQcPHjwPoWXsGZYnODj47bx58wbL43Hdk24fgE6qQGRKRJzcsGFDx40bN3a4c+dOISFapS2QN2/ehzNmzBjRtm3bLUKgPRnuBVm8TgZ5/sqnT5/m/Pvvv1uvW7eu8+XLl8siKiW/2ipUqFDhwuzZs7+tUaPGcT5JhjtCKIJlOp8wKBEBd4KFOiAgIByvJyXEGGSMxb19+3Yh2vFluhflkleCQFxo0i6ugpJ4z549TTDTA3lPSU7V4uvrG92/f/8lo0aNmpYxY8a3fLIMN4YsXgkDszT8999/xTZt2tR+y5YtbTH/EtL41XHIkSNH6Lhx4yZ17959tbe3N1w0ZaQByOJ1AaDUff78eXaUwuvXr+909uzZypiOBeuqVKlyZtq0aaNq1ap1FLM9cDvISBOQxetiwJQtp06d+uyvv/763MvLK3bkyJHT8+TJ84hfLSMNQRaviwJzJ+Gvh4eHnkuQkeYgi1eGDBdFmpjdToYMd4QsXhkyXBSyeGXIcEkoFP8HaP8R+ky6jY8AAAAASUVORK5CYII=;" parent="1" vertex="1">
          <mxGeometry x="671.6" y="-422.5" width="103.8" height="102.5" as="geometry" />
        </mxCell>
        <mxCell id="3uJrxtnBRZQrfx2Aj6_I-91" value="R1" style="text;html=1;align=center;verticalAlign=middle;whiteSpace=wrap;rounded=0;fontFamily=Helvetica;fontSize=26;fontColor=default;" parent="1" vertex="1">
          <mxGeometry x="928.5" y="-624" width="60" height="30" as="geometry" />
        </mxCell>
        <mxCell id="3uJrxtnBRZQrfx2Aj6_I-92" value="R2" style="text;html=1;align=center;verticalAlign=middle;whiteSpace=wrap;rounded=0;fontFamily=Helvetica;fontSize=26;fontColor=default;" parent="1" vertex="1">
          <mxGeometry x="-108" y="-622" width="60" height="30" as="geometry" />
        </mxCell>
        <mxCell id="3uJrxtnBRZQrfx2Aj6_I-93" value="R3" style="text;html=1;align=center;verticalAlign=middle;whiteSpace=wrap;rounded=0;fontFamily=Helvetica;fontSize=26;fontColor=default;" parent="1" vertex="1">
          <mxGeometry x="-39" y="-396.5" width="60" height="30" as="geometry" />
        </mxCell>
        <mxCell id="3uJrxtnBRZQrfx2Aj6_I-94" value="R4" style="text;html=1;align=center;verticalAlign=middle;whiteSpace=wrap;rounded=0;fontFamily=Helvetica;fontSize=26;fontColor=default;" parent="1" vertex="1">
          <mxGeometry x="-30" y="-216.5" width="60" height="30" as="geometry" />
        </mxCell>
        <mxCell id="3uJrxtnBRZQrfx2Aj6_I-111" value="&lt;font style=&quot;font-size: 15px;&quot;&gt;&lt;b&gt;&lt;i&gt;Host IlegÃ­timo 1&lt;/i&gt;&lt;/b&gt;&lt;/font&gt;" style="text;html=1;align=center;verticalAlign=middle;whiteSpace=wrap;rounded=0;fontFamily=Helvetica;fontSize=26;fontColor=default;" parent="1" vertex="1">
          <mxGeometry x="240" y="-408" width="154" height="30" as="geometry" />
        </mxCell>
        <mxCell id="3uJrxtnBRZQrfx2Aj6_I-112" value="&lt;font style=&quot;font-size: 15px;&quot;&gt;&lt;b&gt;&lt;i&gt;Host IlegÃ­timo 2&lt;/i&gt;&lt;/b&gt;&lt;/font&gt;" style="text;html=1;align=center;verticalAlign=middle;whiteSpace=wrap;rounded=0;fontFamily=Helvetica;fontSize=26;fontColor=default;" parent="1" vertex="1">
          <mxGeometry x="520" y="-408" width="154" height="30" as="geometry" />
        </mxCell>
        <mxCell id="3uJrxtnBRZQrfx2Aj6_I-113" value="&lt;font style=&quot;font-size: 15px;&quot;&gt;&lt;b&gt;&lt;i&gt;Open Vswitch 1&lt;/i&gt;&lt;/b&gt;&lt;/font&gt;" style="text;html=1;align=center;verticalAlign=middle;whiteSpace=wrap;rounded=0;fontFamily=Helvetica;fontSize=26;fontColor=default;" parent="1" vertex="1">
          <mxGeometry x="126.5" y="-670" width="154" height="30" as="geometry" />
        </mxCell>
        <mxCell id="3uJrxtnBRZQrfx2Aj6_I-114" value="&lt;font style=&quot;font-size: 15px;&quot;&gt;&lt;b&gt;&lt;i&gt;Open Vswitch 2&lt;/i&gt;&lt;/b&gt;&lt;/font&gt;" style="text;html=1;align=center;verticalAlign=middle;whiteSpace=wrap;rounded=0;fontFamily=Helvetica;fontSize=26;fontColor=default;" parent="1" vertex="1">
          <mxGeometry x="389.5" y="-541.5" width="154" height="30" as="geometry" />
        </mxCell>
        <mxCell id="3uJrxtnBRZQrfx2Aj6_I-115" value="&lt;font style=&quot;font-size: 15px;&quot;&gt;&lt;b&gt;&lt;i&gt;Open Vswitch 3&lt;/i&gt;&lt;/b&gt;&lt;/font&gt;" style="text;html=1;align=center;verticalAlign=middle;whiteSpace=wrap;rounded=0;fontFamily=Helvetica;fontSize=26;fontColor=default;" parent="1" vertex="1">
          <mxGeometry x="699.5" y="-680" width="154" height="30" as="geometry" />
        </mxCell>
        <mxCell id="3uJrxtnBRZQrfx2Aj6_I-116" value="&lt;font style=&quot;font-size: 15px;&quot;&gt;&lt;b&gt;&lt;i&gt;Controlador SDN&lt;/i&gt;&lt;/b&gt;&lt;/font&gt;" style="text;html=1;align=center;verticalAlign=middle;whiteSpace=wrap;rounded=0;fontFamily=Helvetica;fontSize=26;fontColor=default;" parent="1" vertex="1">
          <mxGeometry x="500" y="-848.5" width="154" height="30" as="geometry" />
        </mxCell>
        <mxCell id="3uJrxtnBRZQrfx2Aj6_I-117" value="&lt;font size=&quot;1&quot; style=&quot;&quot;&gt;&lt;b style=&quot;&quot;&gt;&lt;i style=&quot;font-size: 18px;&quot;&gt;RED HÃBRIDA SDN: 192.168.11.0/27&lt;/i&gt;&lt;/b&gt;&lt;/font&gt;" style="text;html=1;align=center;verticalAlign=middle;whiteSpace=wrap;rounded=0;fontFamily=Helvetica;fontSize=26;fontColor=default;" parent="1" vertex="1">
          <mxGeometry x="44.5" y="-800" width="180" height="30" as="geometry" />
        </mxCell>
        <mxCell id="3uJrxtnBRZQrfx2Aj6_I-118" value="Internet" style="text;html=1;align=center;verticalAlign=middle;whiteSpace=wrap;rounded=0;fontFamily=Helvetica;fontSize=26;fontColor=default;" parent="1" vertex="1">
          <mxGeometry x="1234.75" y="-541.5" width="60" height="30" as="geometry" />
        </mxCell>
        <mxCell id="zH8QP84IoBUkZcivjVWc-2" style="edgeStyle=orthogonalEdgeStyle;rounded=0;orthogonalLoop=1;jettySize=auto;html=1;entryX=0.5;entryY=1;entryDx=0;entryDy=0;entryPerimeter=0;endArrow=baseDash;endFill=0;" parent="1" source="3uJrxtnBRZQrfx2Aj6_I-84" target="3uJrxtnBRZQrfx2Aj6_I-17" edge="1">
          <mxGeometry relative="1" as="geometry" />
        </mxCell>
        <mxCell id="zH8QP84IoBUkZcivjVWc-3" style="edgeStyle=orthogonalEdgeStyle;rounded=0;orthogonalLoop=1;jettySize=auto;html=1;entryX=0.5;entryY=1;entryDx=0;entryDy=0;entryPerimeter=0;endArrow=baseDash;endFill=0;" parent="1" source="3uJrxtnBRZQrfx2Aj6_I-88" target="3uJrxtnBRZQrfx2Aj6_I-20" edge="1">
          <mxGeometry relative="1" as="geometry" />
        </mxCell>
        <mxCell id="zH8QP84IoBUkZcivjVWc-5" value="" style="endArrow=classic;html=1;rounded=0;dashed=1;dashPattern=8 8;" parent="1" edge="1">
          <mxGeometry width="50" height="50" relative="1" as="geometry">
            <mxPoint x="194" y="-423.5" as="sourcePoint" />
            <mxPoint x="194" y="-541" as="targetPoint" />
          </mxGeometry>
        </mxCell>
        <mxCell id="zH8QP84IoBUkZcivjVWc-7" value="" style="endArrow=classic;html=1;rounded=0;dashed=1;dashPattern=8 8;" parent="1" edge="1">
          <mxGeometry width="50" height="50" relative="1" as="geometry">
            <mxPoint x="146" y="-556" as="sourcePoint" />
            <mxPoint x="-30" y="-556" as="targetPoint" />
          </mxGeometry>
        </mxCell>
        <mxCell id="zH8QP84IoBUkZcivjVWc-9" value="" style="endArrow=classic;html=1;rounded=0;dashed=1;dashPattern=8 8;" parent="1" edge="1">
          <mxGeometry width="50" height="50" relative="1" as="geometry">
            <mxPoint x="-30" y="-573" as="sourcePoint" />
            <mxPoint x="146" y="-573" as="targetPoint" />
          </mxGeometry>
        </mxCell>
        <mxCell id="zH8QP84IoBUkZcivjVWc-12" value="" style="endArrow=classic;html=1;rounded=0;dashed=1;dashPattern=8 8;" parent="1" edge="1">
          <mxGeometry width="50" height="50" relative="1" as="geometry">
            <mxPoint x="213" y="-540" as="sourcePoint" />
            <mxPoint x="213" y="-422.5" as="targetPoint" />
          </mxGeometry>
        </mxCell>
        <mxCell id="zH8QP84IoBUkZcivjVWc-13" value="" style="endArrow=classic;html=1;rounded=0;dashed=1;dashPattern=8 8;" parent="1" edge="1">
          <mxGeometry width="50" height="50" relative="1" as="geometry">
            <mxPoint x="259" y="-574.5" as="sourcePoint" />
            <mxPoint x="411" y="-574.5" as="targetPoint" />
          </mxGeometry>
        </mxCell>
        <mxCell id="zH8QP84IoBUkZcivjVWc-14" value="" style="endArrow=classic;html=1;rounded=0;dashed=1;dashPattern=8 8;" parent="1" edge="1">
          <mxGeometry width="50" height="50" relative="1" as="geometry">
            <mxPoint x="519.6" y="-573" as="sourcePoint" />
            <mxPoint x="671.6" y="-573" as="targetPoint" />
          </mxGeometry>
        </mxCell>
        <mxCell id="zH8QP84IoBUkZcivjVWc-16" value="" style="endArrow=classic;html=1;rounded=0;dashed=1;dashPattern=8 8;" parent="1" edge="1">
          <mxGeometry width="50" height="50" relative="1" as="geometry">
            <mxPoint x="411.50000000000045" y="-560.64" as="sourcePoint" />
            <mxPoint x="259.50000000000045" y="-560.64" as="targetPoint" />
          </mxGeometry>
        </mxCell>
        <mxCell id="zH8QP84IoBUkZcivjVWc-18" value="" style="endArrow=classic;html=1;rounded=0;dashed=1;dashPattern=8 8;" parent="1" edge="1">
          <mxGeometry width="50" height="50" relative="1" as="geometry">
            <mxPoint x="667.0000000000005" y="-558" as="sourcePoint" />
            <mxPoint x="515.0000000000005" y="-558" as="targetPoint" />
          </mxGeometry>
        </mxCell>
        <mxCell id="zH8QP84IoBUkZcivjVWc-19" value="" style="endArrow=classic;html=1;rounded=0;dashed=1;dashPattern=8 8;" parent="1" edge="1">
          <mxGeometry width="50" height="50" relative="1" as="geometry">
            <mxPoint x="779" y="-575" as="sourcePoint" />
            <mxPoint x="939" y="-575" as="targetPoint" />
          </mxGeometry>
        </mxCell>
        <mxCell id="zH8QP84IoBUkZcivjVWc-20" value="" style="endArrow=classic;html=1;rounded=0;dashed=1;dashPattern=8 8;" parent="1" edge="1">
          <mxGeometry width="50" height="50" relative="1" as="geometry">
            <mxPoint x="713.5" y="-424" as="sourcePoint" />
            <mxPoint x="713.5" y="-541.5" as="targetPoint" />
          </mxGeometry>
        </mxCell>
        <mxCell id="zH8QP84IoBUkZcivjVWc-21" value="" style="endArrow=classic;html=1;rounded=0;dashed=1;dashPattern=8 8;" parent="1" edge="1">
          <mxGeometry width="50" height="50" relative="1" as="geometry">
            <mxPoint x="732.5" y="-540.5" as="sourcePoint" />
            <mxPoint x="732.5" y="-423" as="targetPoint" />
          </mxGeometry>
        </mxCell>
        <mxCell id="zH8QP84IoBUkZcivjVWc-22" value="" style="endArrow=classic;html=1;rounded=0;dashed=1;dashPattern=8 8;" parent="1" edge="1">
          <mxGeometry width="50" height="50" relative="1" as="geometry">
            <mxPoint x="927.4000000000004" y="-560" as="sourcePoint" />
            <mxPoint x="775.4000000000004" y="-560" as="targetPoint" />
          </mxGeometry>
        </mxCell>
        <mxCell id="zH8QP84IoBUkZcivjVWc-23" value="&lt;font style=&quot;font-size: 15px;&quot;&gt;&lt;b style=&quot;font-size: 14px;&quot;&gt;&lt;i&gt;ICMP echo (request)&lt;/i&gt;&lt;/b&gt;&lt;/font&gt;" style="text;html=1;align=center;verticalAlign=middle;whiteSpace=wrap;rounded=0;fontFamily=Helvetica;fontSize=26;fontColor=default;" parent="1" vertex="1">
          <mxGeometry x="40" y="-490" width="158.5" height="30" as="geometry" />
        </mxCell>
        <mxCell id="zH8QP84IoBUkZcivjVWc-26" value="&lt;font style=&quot;font-size: 15px;&quot;&gt;&lt;b style=&quot;font-size: 14px;&quot;&gt;&lt;i&gt;ICMP echo (reply)&lt;/i&gt;&lt;/b&gt;&lt;/font&gt;" style="text;html=1;align=center;verticalAlign=middle;whiteSpace=wrap;rounded=0;fontFamily=Helvetica;fontSize=26;fontColor=default;" parent="1" vertex="1">
          <mxGeometry x="231" y="-490" width="158.5" height="30" as="geometry" />
        </mxCell>
        <mxCell id="zH8QP84IoBUkZcivjVWc-28" value="&lt;font style=&quot;font-size: 15px;&quot;&gt;&lt;b style=&quot;font-size: 14px;&quot;&gt;&lt;i&gt;ICMP echo (reply)&lt;/i&gt;&lt;/b&gt;&lt;/font&gt;" style="text;html=1;align=center;verticalAlign=middle;whiteSpace=wrap;rounded=0;fontFamily=Helvetica;fontSize=26;fontColor=default;" parent="1" vertex="1">
          <mxGeometry x="774" y="-550" width="158.5" height="30" as="geometry" />
        </mxCell>
        <mxCell id="zH8QP84IoBUkZcivjVWc-30" value="&lt;font style=&quot;font-size: 15px;&quot;&gt;&lt;b style=&quot;font-size: 14px;&quot;&gt;&lt;i&gt;ICMP echo (reply)&lt;/i&gt;&lt;/b&gt;&lt;/font&gt;" style="text;html=1;align=center;verticalAlign=middle;whiteSpace=wrap;rounded=0;fontFamily=Helvetica;fontSize=26;fontColor=default;" parent="1" vertex="1">
          <mxGeometry x="-20" y="-610" width="158.5" height="30" as="geometry" />
        </mxCell>
        <mxCell id="zH8QP84IoBUkZcivjVWc-33" value="&lt;font style=&quot;font-size: 15px;&quot;&gt;&lt;b style=&quot;font-size: 14px;&quot;&gt;&lt;i&gt;ICMP echo (request)&lt;/i&gt;&lt;/b&gt;&lt;/font&gt;" style="text;html=1;align=center;verticalAlign=middle;whiteSpace=wrap;rounded=0;fontFamily=Helvetica;fontSize=26;fontColor=default;" parent="1" vertex="1">
          <mxGeometry x="-20" y="-560" width="158.5" height="30" as="geometry" />
        </mxCell>
        <mxCell id="zH8QP84IoBUkZcivjVWc-34" value="&lt;font style=&quot;font-size: 15px;&quot;&gt;&lt;b style=&quot;font-size: 14px;&quot;&gt;&lt;i&gt;ICMP echo (request)&lt;/i&gt;&lt;/b&gt;&lt;/font&gt;" style="text;html=1;align=center;verticalAlign=middle;whiteSpace=wrap;rounded=0;fontFamily=Helvetica;fontSize=26;fontColor=default;" parent="1" vertex="1">
          <mxGeometry x="774" y="-610" width="158.5" height="30" as="geometry" />
        </mxCell>
        <mxCell id="zH8QP84IoBUkZcivjVWc-35" value="&lt;font style=&quot;font-size: 15px;&quot;&gt;&lt;b style=&quot;font-size: 14px;&quot;&gt;&lt;i&gt;ICMP echo (request)&lt;/i&gt;&lt;/b&gt;&lt;/font&gt;" style="text;html=1;align=center;verticalAlign=middle;whiteSpace=wrap;rounded=0;fontFamily=Helvetica;fontSize=26;fontColor=default;" parent="1" vertex="1">
          <mxGeometry x="550" y="-490" width="158.5" height="30" as="geometry" />
        </mxCell>
        <mxCell id="zH8QP84IoBUkZcivjVWc-37" value="&lt;font style=&quot;font-size: 15px;&quot;&gt;&lt;b style=&quot;font-size: 14px;&quot;&gt;&lt;i&gt;ICMP echo (reply)&lt;/i&gt;&lt;/b&gt;&lt;/font&gt;" style="text;html=1;align=center;verticalAlign=middle;whiteSpace=wrap;rounded=0;fontFamily=Helvetica;fontSize=26;fontColor=default;" parent="1" vertex="1">
          <mxGeometry x="750" y="-490" width="158.5" height="30" as="geometry" />
        </mxCell>
        <mxCell id="LZ3MUwEuHvVNPTTfiNw9-3" value="" style="html=1;verticalLabelPosition=bottom;align=center;labelBackgroundColor=#ffffff;verticalAlign=top;strokeWidth=2;strokeColor=#0080F0;shadow=0;dashed=0;shape=mxgraph.ios7.icons.window;" parent="1" vertex="1">
          <mxGeometry x="83.5" y="-320.5" width="120" height="60" as="geometry" />
        </mxCell>
        <mxCell id="LZ3MUwEuHvVNPTTfiNw9-4" value="Hping3 -&amp;gt; R1" style="text;html=1;align=center;verticalAlign=middle;whiteSpace=wrap;rounded=0;fontSize=18;" parent="1" vertex="1">
          <mxGeometry x="83.5" y="-300.5" width="120" height="30" as="geometry" />
        </mxCell>
        <mxCell id="LZ3MUwEuHvVNPTTfiNw9-5" value="" style="html=1;verticalLabelPosition=bottom;align=center;labelBackgroundColor=#ffffff;verticalAlign=top;strokeWidth=2;strokeColor=#0080F0;shadow=0;dashed=0;shape=mxgraph.ios7.icons.window;" parent="1" vertex="1">
          <mxGeometry x="83.5" y="-260.5" width="120" height="60" as="geometry" />
        </mxCell>
        <mxCell id="LZ3MUwEuHvVNPTTfiNw9-6" value="Hping3 -&amp;gt; R1" style="text;html=1;align=center;verticalAlign=middle;whiteSpace=wrap;rounded=0;fontSize=18;" parent="1" vertex="1">
          <mxGeometry x="83.5" y="-240.5" width="120" height="30" as="geometry" />
        </mxCell>
        <mxCell id="LZ3MUwEuHvVNPTTfiNw9-7" value="" style="html=1;verticalLabelPosition=bottom;align=center;labelBackgroundColor=#ffffff;verticalAlign=top;strokeWidth=2;strokeColor=#0080F0;shadow=0;dashed=0;shape=mxgraph.ios7.icons.window;" parent="1" vertex="1">
          <mxGeometry x="204.5" y="-320.5" width="120" height="60" as="geometry" />
        </mxCell>
        <mxCell id="LZ3MUwEuHvVNPTTfiNw9-8" value="Hping3 -&amp;gt; R1" style="text;html=1;align=center;verticalAlign=middle;whiteSpace=wrap;rounded=0;fontSize=18;" parent="1" vertex="1">
          <mxGeometry x="203.5" y="-300.5" width="120" height="30" as="geometry" />
        </mxCell>
        <mxCell id="LZ3MUwEuHvVNPTTfiNw9-9" value="" style="html=1;verticalLabelPosition=bottom;align=center;labelBackgroundColor=#ffffff;verticalAlign=top;strokeWidth=2;strokeColor=#0080F0;shadow=0;dashed=0;shape=mxgraph.ios7.icons.window;" parent="1" vertex="1">
          <mxGeometry x="204.5" y="-260.5" width="120" height="60" as="geometry" />
        </mxCell>
        <mxCell id="LZ3MUwEuHvVNPTTfiNw9-10" value="Hping3 -&amp;gt; R1" style="text;html=1;align=center;verticalAlign=middle;whiteSpace=wrap;rounded=0;fontSize=18;" parent="1" vertex="1">
          <mxGeometry x="204.5" y="-240.5" width="120" height="30" as="geometry" />
        </mxCell>
        <mxCell id="LZ3MUwEuHvVNPTTfiNw9-15" value="" style="html=1;verticalLabelPosition=bottom;align=center;labelBackgroundColor=#ffffff;verticalAlign=top;strokeWidth=2;strokeColor=#0080F0;shadow=0;dashed=0;shape=mxgraph.ios7.icons.window;" parent="1" vertex="1">
          <mxGeometry x="603.5" y="-325" width="120" height="60" as="geometry" />
        </mxCell>
        <mxCell id="LZ3MUwEuHvVNPTTfiNw9-16" value="Hping3 -&amp;gt;R2" style="text;html=1;align=center;verticalAlign=middle;whiteSpace=wrap;rounded=0;fontSize=18;" parent="1" vertex="1">
          <mxGeometry x="603.5" y="-305" width="120" height="30" as="geometry" />
        </mxCell>
        <mxCell id="LZ3MUwEuHvVNPTTfiNw9-17" value="" style="html=1;verticalLabelPosition=bottom;align=center;labelBackgroundColor=#ffffff;verticalAlign=top;strokeWidth=2;strokeColor=#0080F0;shadow=0;dashed=0;shape=mxgraph.ios7.icons.window;" parent="1" vertex="1">
          <mxGeometry x="603.5" y="-265" width="120" height="60" as="geometry" />
        </mxCell>
        <mxCell id="LZ3MUwEuHvVNPTTfiNw9-18" value="Hping3 -&amp;gt; R2" style="text;html=1;align=center;verticalAlign=middle;whiteSpace=wrap;rounded=0;fontSize=18;" parent="1" vertex="1">
          <mxGeometry x="603.5" y="-245" width="120" height="30" as="geometry" />
        </mxCell>
        <mxCell id="LZ3MUwEuHvVNPTTfiNw9-19" value="" style="html=1;verticalLabelPosition=bottom;align=center;labelBackgroundColor=#ffffff;verticalAlign=top;strokeWidth=2;strokeColor=#0080F0;shadow=0;dashed=0;shape=mxgraph.ios7.icons.window;" parent="1" vertex="1">
          <mxGeometry x="724.5" y="-325" width="120" height="60" as="geometry" />
        </mxCell>
        <mxCell id="LZ3MUwEuHvVNPTTfiNw9-20" value="Hping3 -&amp;gt; R2" style="text;html=1;align=center;verticalAlign=middle;whiteSpace=wrap;rounded=0;fontSize=18;" parent="1" vertex="1">
          <mxGeometry x="723.5" y="-305" width="120" height="30" as="geometry" />
        </mxCell>
        <mxCell id="LZ3MUwEuHvVNPTTfiNw9-21" value="" style="html=1;verticalLabelPosition=bottom;align=center;labelBackgroundColor=#ffffff;verticalAlign=top;strokeWidth=2;strokeColor=#0080F0;shadow=0;dashed=0;shape=mxgraph.ios7.icons.window;" parent="1" vertex="1">
          <mxGeometry x="724.5" y="-265" width="120" height="60" as="geometry" />
        </mxCell>
        <mxCell id="LZ3MUwEuHvVNPTTfiNw9-22" value="Hping3 -&amp;gt; R2" style="text;html=1;align=center;verticalAlign=middle;whiteSpace=wrap;rounded=0;fontSize=18;" parent="1" vertex="1">
          <mxGeometry x="724.5" y="-245" width="120" height="30" as="geometry" />
        </mxCell>
        <mxCell id="2CQhsglb_9HtxBJTh578-1" value="" style="endArrow=classic;html=1;rounded=0;dashed=1;dashPattern=8 8;" parent="1" edge="1">
          <mxGeometry width="50" height="50" relative="1" as="geometry">
            <mxPoint x="269" y="-564.5" as="sourcePoint" />
            <mxPoint x="421" y="-564.5" as="targetPoint" />
          </mxGeometry>
        </mxCell>
        <mxCell id="2CQhsglb_9HtxBJTh578-2" value="" style="endArrow=classic;html=1;rounded=0;dashed=1;dashPattern=8 8;" parent="1" edge="1">
          <mxGeometry width="50" height="50" relative="1" as="geometry">
            <mxPoint x="231" y="-630" as="sourcePoint" />
            <mxPoint x="410" y="-680" as="targetPoint" />
          </mxGeometry>
        </mxCell>
        <mxCell id="2CQhsglb_9HtxBJTh578-4" value="" style="endArrow=classic;html=1;rounded=0;dashed=1;dashPattern=8 8;" parent="1" edge="1">
          <mxGeometry width="50" height="50" relative="1" as="geometry">
            <mxPoint x="690" y="-630" as="sourcePoint" />
            <mxPoint x="521.0000000000005" y="-679.59" as="targetPoint" />
          </mxGeometry>
        </mxCell>
        <mxCell id="2CQhsglb_9HtxBJTh578-6" value="" style="endArrow=classic;html=1;rounded=0;dashed=1;dashPattern=8 8;" parent="1" edge="1">
          <mxGeometry width="50" height="50" relative="1" as="geometry">
            <mxPoint x="453" y="-712" as="sourcePoint" />
            <mxPoint x="453.5" y="-779.5" as="targetPoint" />
          </mxGeometry>
        </mxCell>
        <mxCell id="2CQhsglb_9HtxBJTh578-7" value="" style="endArrow=classic;html=1;rounded=0;dashed=1;dashPattern=8 8;" parent="1" edge="1">
          <mxGeometry width="50" height="50" relative="1" as="geometry">
            <mxPoint x="479" y="-780" as="sourcePoint" />
            <mxPoint x="479.5" y="-712.5" as="targetPoint" />
          </mxGeometry>
        </mxCell>
        <mxCell id="2CQhsglb_9HtxBJTh578-8" value="&lt;span style=&quot;font-size: 14px;&quot;&gt;&lt;b&gt;&lt;i&gt;OFTP_PACKET_IN&lt;/i&gt;&lt;/b&gt;&lt;/span&gt;" style="text;html=1;align=center;verticalAlign=middle;whiteSpace=wrap;rounded=0;fontFamily=Helvetica;fontSize=26;fontColor=default;" parent="1" vertex="1">
          <mxGeometry x="333.5" y="-762.5" width="98.5" height="30" as="geometry" />
        </mxCell>
        <mxCell id="2CQhsglb_9HtxBJTh578-10" value="&lt;span style=&quot;font-size: 14px;&quot;&gt;&lt;b&gt;&lt;i&gt;OFTP_PACKET_IN&lt;/i&gt;&lt;/b&gt;&lt;/span&gt;" style="text;html=1;align=center;verticalAlign=middle;whiteSpace=wrap;rounded=0;fontFamily=Helvetica;fontSize=26;fontColor=default;" parent="1" vertex="1">
          <mxGeometry x="267.75" y="-694" width="98.5" height="30" as="geometry" />
        </mxCell>
        <mxCell id="2CQhsglb_9HtxBJTh578-11" value="&lt;span style=&quot;font-size: 14px;&quot;&gt;&lt;b&gt;&lt;i&gt;OFTP_PACKET_IN&lt;/i&gt;&lt;/b&gt;&lt;/span&gt;" style="text;html=1;align=center;verticalAlign=middle;whiteSpace=wrap;rounded=0;fontFamily=Helvetica;fontSize=26;fontColor=default;" parent="1" vertex="1">
          <mxGeometry x="593.5" y="-694" width="98.5" height="30" as="geometry" />
        </mxCell>
        <mxCell id="aoswYFJSDnx5TVZIGaYn-1" value="&lt;span style=&quot;font-size: 14px;&quot;&gt;&lt;b&gt;&lt;i&gt;OFTP_PACKET_OUT&lt;/i&gt;&lt;/b&gt;&lt;/span&gt;" style="text;html=1;align=center;verticalAlign=middle;whiteSpace=wrap;rounded=0;fontFamily=Helvetica;fontSize=26;fontColor=default;" vertex="1" parent="1">
          <mxGeometry x="505" y="-770" width="98.5" height="30" as="geometry" />
        </mxCell>
      </root>
    </mxGraphModel>
  </diagram>
</mxfile>
